<svg width="146" height="32" viewBox="0 0 146 32" fill="none" xmlns="http://www.w3.org/2000/svg">
<path d="M0 10.1714V10.0046H8.77842V14.0899C9.37174 13.0338 10.1404 12.1028 11.0843 11.2969C12.3248 10.2686 13.8621 9.75452 15.696 9.75452C17.6108 9.75452 19.1345 10.3659 20.2672 11.5887C20.9145 12.3113 21.3864 13.1867 21.6831 14.2149C21.764 14.5206 21.8179 14.8263 21.8449 15.132C21.9258 15.6322 21.9663 16.1464 21.9663 16.6744V24.1362C21.9663 25.2478 22.0607 26.2899 22.2495 27.2626C22.4652 28.2075 22.7484 29.3469 23.099 30.6809L23.2203 31.0977V31.2645H13.1879V31.0977L13.3092 30.6809C13.6598 29.3469 13.9295 28.2075 14.1183 27.2626C14.334 26.2899 14.4419 25.2478 14.4419 24.1362V17.7999C14.4419 16.7439 14.1183 15.9657 13.471 15.4655C12.8507 14.9653 12.0552 14.7151 11.0843 14.7151C10.5719 14.7151 10.0594 14.7846 9.54704 14.9236C9.27735 15.0069 9.02114 15.0903 8.77842 15.1737V24.1362C8.77842 25.2478 8.87281 26.2899 9.06159 27.2626C9.27735 28.2075 9.56052 29.3469 9.91112 30.6809L10.0325 31.0977V31.2645H0V31.0977L0.121361 30.6809C0.471958 29.3469 0.741648 28.2075 0.930432 27.2626C1.14618 26.2899 1.25406 25.2478 1.25406 24.1362V17.1329C1.25406 16.0213 1.14618 14.9931 0.930432 14.0482C0.741648 13.0755 0.471958 11.9222 0.121361 10.5882L0 10.1714ZM21.8449 15.132C21.5752 15.2432 21.319 15.3543 21.0763 15.4655L21.2786 15.0069C21.3864 14.729 21.5213 14.465 21.6831 14.2149C22.2764 13.0755 23.0855 12.0889 24.1103 11.2552C25.3239 10.2547 26.8342 9.75452 28.6411 9.75452C30.5559 9.75452 32.0797 10.3659 33.2124 11.5887C34.3451 12.8115 34.9114 14.5067 34.9114 16.6744V24.1362C34.9114 25.2478 35.0058 26.2899 35.1946 27.2626C35.4103 28.2075 35.6935 29.3469 36.0441 30.6809L36.1655 31.0977V31.2645H26.133V31.0977L26.2544 30.6809C26.6049 29.3469 26.8746 28.2075 27.0634 27.2626C27.2792 26.2899 27.3871 25.2478 27.3871 24.1362V17.7999C27.3871 16.7439 27.0769 15.9657 26.4566 15.4655C25.8363 14.9653 25.0542 14.7151 24.1103 14.7151C23.6249 14.7151 23.1259 14.7846 22.6135 14.9236C22.3438 14.9792 22.0876 15.0486 21.8449 15.132Z" fill="#5333EE"/>
<path d="M37.9271 20.5929C37.9271 18.1473 38.426 16.1186 39.4239 14.5067C40.4487 12.8671 41.8106 11.6721 43.5097 10.9217C45.2087 10.1436 47.0831 9.75452 49.1327 9.75452C51.1824 9.75452 53.0567 10.1436 54.7558 10.9217C56.4548 11.6999 57.8168 12.8949 58.8416 14.5067C59.8664 16.1186 60.3788 18.1473 60.3788 20.5929C60.3788 23.0384 59.8664 25.1088 58.8416 26.8041C57.8168 28.4715 56.4413 29.7221 54.7153 30.5558C53.0163 31.3617 51.1554 31.7647 49.1327 31.7647C47.0831 31.7647 45.2087 31.3617 43.5097 30.5558C41.8106 29.7221 40.4487 28.4715 39.4239 26.8041C38.426 25.1088 37.9271 23.0384 37.9271 20.5929ZM46.6246 25.1366C46.7595 26.4706 47.0157 27.5961 47.3932 28.5132C47.7978 29.4025 48.3776 29.8472 49.1327 29.8472C49.8609 29.8472 50.4272 29.4025 50.8318 28.5132C51.2633 27.5961 51.5465 26.4567 51.6813 25.095C51.8161 23.7332 51.8836 22.2325 51.8836 20.5929C51.8836 18.9532 51.8161 17.4803 51.6813 16.1742C51.5465 14.868 51.2768 13.7842 50.8722 12.9226C50.4677 12.0611 49.8879 11.6304 49.1327 11.6304C48.3776 11.6304 47.7978 12.0611 47.3932 12.9226C46.9887 13.7842 46.719 14.868 46.5842 16.1742C46.4763 17.4525 46.4223 18.9254 46.4223 20.5929C46.4223 22.2881 46.4898 23.8027 46.6246 25.1366Z" fill="#5333EE"/>
<path d="M62.477 1.00047L63.7311 0.833721L71.4577 0V24.1362C71.4577 25.2478 71.5521 26.2899 71.7409 27.2626C71.9566 28.2075 72.2398 29.3469 72.5904 30.6809L72.7118 31.0977V31.2645H62.5984V31.0977L62.7197 30.6809C63.0703 29.3469 63.34 28.2075 63.5288 27.2626C63.7446 26.2899 63.8524 25.2478 63.8524 24.1362V7.96202C63.8524 6.85039 63.7311 5.78045 63.4884 4.7522C63.2456 3.69616 62.9625 2.64011 62.6388 1.58407C62.5579 1.33395 62.5175 1.195 62.5175 1.16721L62.477 1.00047ZM71.9836 20.3011L76.4335 16.1742C77.4314 15.2849 77.9303 14.34 77.9303 13.3395C77.9303 13.3117 77.9168 13.0338 77.8898 12.5058C77.8629 11.95 77.6606 11.2691 77.283 10.4632L77.2021 10.2131V10.0046H85.9401V10.2131L78.3753 17.0496L86.0614 31.056V31.2645H77.283L71.9836 20.3011Z" fill="#5333EE"/>
<path d="M87.2093 20.5929C87.2093 18.1473 87.7082 16.1186 88.7061 14.5067C89.7309 12.8671 91.0928 11.6721 92.7919 10.9217C94.491 10.1436 96.3653 9.75452 98.4149 9.75452C100.465 9.75452 102.339 10.1436 104.038 10.9217C105.737 11.6999 107.099 12.8949 108.124 14.5067C109.149 16.1186 109.661 18.1473 109.661 20.5929C109.661 23.0384 109.149 25.1088 108.124 26.8041C107.099 28.4715 105.724 29.7221 103.998 30.5558C102.298 31.3617 100.438 31.7647 98.4149 31.7647C96.3653 31.7647 94.491 31.3617 92.7919 30.5558C91.0928 29.7221 89.7309 28.4715 88.7061 26.8041C87.7082 25.1088 87.2093 23.0384 87.2093 20.5929ZM95.9068 25.1366C96.0417 26.4706 96.2979 27.5961 96.6754 28.5132C97.08 29.4025 97.6598 29.8472 98.4149 29.8472C99.1431 29.8472 99.7095 29.4025 100.114 28.5132C100.546 27.5961 100.829 26.4567 100.964 25.095C101.098 23.7332 101.166 22.2325 101.166 20.5929C101.166 18.9532 101.098 17.4803 100.964 16.1742C100.829 14.868 100.559 13.7842 100.154 12.9226C99.7499 12.0611 99.1701 11.6304 98.4149 11.6304C97.6598 11.6304 97.08 12.0611 96.6754 12.9226C96.2709 13.7842 96.0012 14.868 95.8664 16.1742C95.7585 17.4525 95.7046 18.9254 95.7046 20.5929C95.7046 22.2881 95.772 23.8027 95.9068 25.1366Z" fill="#5333EE"/>
<path d="M111.557 1.00047L112.811 0.833721L120.538 0V24.1362C120.538 25.2478 120.632 26.2899 120.821 27.2626C121.037 28.2075 121.32 29.3469 121.67 30.6809L121.792 31.0977V31.2645H111.678V31.0977L111.8 30.6809C112.15 29.3469 112.42 28.2075 112.609 27.2626C112.825 26.2899 112.932 25.2478 112.932 24.1362V7.96202C112.932 6.85039 112.811 5.78045 112.568 4.7522C112.326 3.69616 112.042 2.64011 111.719 1.58407C111.638 1.33395 111.597 1.195 111.597 1.16721L111.557 1.00047Z" fill="#5333EE"/>
<path d="M123.494 20.5929C123.494 18.1473 123.993 16.1186 124.991 14.5067C126.016 12.8671 127.378 11.6721 129.077 10.9217C130.776 10.1436 132.65 9.75452 134.7 9.75452C136.75 9.75452 138.624 10.1436 140.323 10.9217C142.022 11.6999 143.384 12.8949 144.409 14.5067C145.434 16.1186 145.946 18.1473 145.946 20.5929C145.946 23.0384 145.434 25.1088 144.409 26.8041C143.384 28.4715 142.008 29.7221 140.282 30.5558C138.583 31.3617 136.723 31.7647 134.7 31.7647C132.65 31.7647 130.776 31.3617 129.077 30.5558C127.378 29.7221 126.016 28.4715 124.991 26.8041C123.993 25.1088 123.494 23.0384 123.494 20.5929ZM132.192 25.1366C132.327 26.4706 132.583 27.5961 132.96 28.5132C133.365 29.4025 133.945 29.8472 134.7 29.8472C135.428 29.8472 135.994 29.4025 136.399 28.5132C136.83 27.5961 137.114 26.4567 137.248 25.095C137.383 23.7332 137.451 22.2325 137.451 20.5929C137.451 18.9532 137.383 17.4803 137.248 16.1742C137.114 14.868 136.844 13.7842 136.439 12.9226C136.035 12.0611 135.455 11.6304 134.7 11.6304C133.945 11.6304 133.365 12.0611 132.96 12.9226C132.556 13.7842 132.286 14.868 132.151 16.1742C132.043 17.4525 131.989 18.9254 131.989 20.5929C131.989 22.2881 132.057 23.8027 132.192 25.1366Z" fill="#5333EE"/>
</svg>
