<svg width="18" height="17" viewBox="0 0 18 17" fill="none" xmlns="http://www.w3.org/2000/svg">
<path d="M12.0917 9.09169C12.9087 8.44891 13.505 7.56746 13.7977 6.56997C14.0904 5.57249 14.0649 4.50858 13.7248 3.52625C13.3847 2.54391 12.7469 1.69202 11.9001 1.08907C11.0532 0.486122 10.0395 0.162109 9 0.162109C7.96045 0.162109 6.94676 0.486122 6.09994 1.08907C5.25312 1.69202 4.61528 2.54391 4.27517 3.52625C3.93506 4.50858 3.90959 5.57249 4.2023 6.56997C4.49501 7.56746 5.09134 8.44891 5.90833 9.09169C4.5084 9.65256 3.2869 10.5828 2.37407 11.7833C1.46125 12.9838 0.8913 14.4094 0.724997 15.9084C0.712959 16.0178 0.722594 16.1285 0.753352 16.2342C0.784109 16.3399 0.835387 16.4386 0.904257 16.5245C1.04335 16.6979 1.24565 16.809 1.46666 16.8334C1.68768 16.8577 1.9093 16.7932 2.08277 16.6541C2.25624 16.515 2.36735 16.3127 2.39166 16.0917C2.57465 14.4627 3.3514 12.9582 4.57351 11.8657C5.79562 10.7732 7.37741 10.1692 9.01667 10.1692C10.6559 10.1692 12.2377 10.7732 13.4598 11.8657C14.6819 12.9582 15.4587 14.4627 15.6417 16.0917C15.6643 16.2965 15.762 16.4856 15.9159 16.6225C16.0698 16.7595 16.269 16.8346 16.475 16.8334H16.5667C16.7851 16.8082 16.9848 16.6978 17.1221 16.5261C17.2595 16.3544 17.3234 16.1353 17.3 15.9167C17.1329 14.4135 16.5599 12.9842 15.6424 11.7819C14.7249 10.5795 13.4974 9.64959 12.0917 9.09169ZM9 8.50002C8.34073 8.50002 7.69626 8.30453 7.1481 7.93825C6.59993 7.57198 6.17269 7.05139 5.9204 6.4423C5.66811 5.83321 5.6021 5.16299 5.73071 4.51639C5.85933 3.86979 6.1768 3.27584 6.64297 2.80967C7.10915 2.34349 7.70309 2.02602 8.3497 1.89741C8.9963 1.76879 9.66652 1.8348 10.2756 2.08709C10.8847 2.33938 11.4053 2.76662 11.7716 3.31479C12.1378 3.86295 12.3333 4.50742 12.3333 5.16669C12.3333 6.05074 11.9821 6.89859 11.357 7.52371C10.7319 8.14883 9.88405 8.50002 9 8.50002Z" fill="#A0AEC0"/>
</svg>
