<svg width="328" height="160" viewBox="0 0 328 160" fill="none" xmlns="http://www.w3.org/2000/svg">
<g clip-path="url(#clip0_2198_12690)">
<path opacity="0.7" d="M164 160C254.575 160 328 140.301 328 116C328 91.6995 254.575 72 164 72C73.4253 72 0 91.6995 0 116C0 140.301 73.4253 160 164 160Z" fill="url(#paint0_linear_2198_12690)"/>
<path d="M256.874 68.306C256.84 68.062 256.758 67.8272 256.632 67.6153C256.507 67.4033 256.34 67.2185 256.143 67.0714C255.945 66.9244 255.72 66.8182 255.481 66.7589C255.242 66.6995 254.994 66.6884 254.75 66.726C253.734 66.885 253.057 67.864 253.211 68.906C253.488 70.676 253.826 76.204 251.948 78.447C251.548 78.921 251.056 79.205 250.44 79.332L250.625 68.78C250.656 67.232 249.455 66 247.947 66C246.438 66 245.238 67.264 245.268 68.812L245.761 88.841C245.115 88.746 244.622 88.43 244.191 87.956C242.313 85.713 242.652 80.184 242.929 78.416C243.083 77.373 242.406 76.394 241.39 76.236C241.147 76.1984 240.898 76.2095 240.659 76.2689C240.42 76.3282 240.195 76.4344 239.997 76.5814C239.8 76.7285 239.633 76.9133 239.508 77.1253C239.382 77.3372 239.3 77.572 239.266 77.816C239.143 78.7 238.065 86.44 241.359 90.42C242.498 91.779 244.037 92.568 245.823 92.663L246.038 101.382H250.071L250.379 83.186C252.133 83.059 253.642 82.27 254.75 80.943C258.074 76.931 256.997 69.159 256.874 68.306ZM82.3501 93.485C82.3282 93.3293 82.2757 93.1796 82.1956 93.0443C82.1155 92.9091 82.0094 92.7911 81.8834 92.6971C81.7574 92.6031 81.614 92.5349 81.4616 92.4967C81.3091 92.4584 81.1506 92.4507 80.9951 92.474C80.3491 92.569 79.9181 93.201 80.0101 93.864C80.1641 95.001 80.3801 98.508 79.2101 99.929C79.0964 100.082 78.9534 100.211 78.7895 100.309C78.6256 100.407 78.444 100.471 78.2551 100.498L78.3791 93.769C78.3884 93.5404 78.3515 93.3123 78.2705 93.0984C78.1896 92.8844 78.0663 92.689 77.908 92.5239C77.7498 92.3587 77.5598 92.2272 77.3495 92.1371C77.1392 92.0471 76.9129 92.0005 76.6841 92C75.7301 92 74.9601 92.821 74.9911 93.8L75.2991 106.564C74.9094 106.509 74.5562 106.305 74.3141 105.995C73.1141 104.573 73.3291 101.035 73.5141 99.929C73.6061 99.266 73.1751 98.634 72.5291 98.539C71.8821 98.445 71.2971 98.887 71.1741 99.55C71.0821 100.119 70.4041 105.047 72.5291 107.575C73.2671 108.459 74.2221 108.933 75.3911 109.028L75.5151 114.588H78.1001L78.2851 102.994C79.3931 102.899 80.3781 102.425 81.0861 101.572C83.1181 98.982 82.4421 94.053 82.3501 93.485Z" fill="#C7C7C7"/>
<path d="M209.703 128H87L175.01 28.582H214.012L209.703 128Z" fill="url(#paint1_linear_2198_12690)"/>
<path d="M176.98 64.1861C176.874 64.0308 176.711 63.9237 176.527 63.8881C176.342 63.8525 176.151 63.8913 175.995 63.9961C175.842 64.1101 175.738 64.2777 175.704 64.4652C175.67 64.6528 175.708 64.8463 175.81 65.0071C176.179 65.5771 177.164 67.4401 176.887 68.5141C176.826 68.7351 176.703 68.9241 176.518 69.0831L174.917 65.4181C174.671 64.8811 174.086 64.6601 173.563 64.9131C173.311 65.0382 173.119 65.2571 173.026 65.5228C172.934 65.7886 172.95 66.0798 173.07 66.3341L176.395 73.1581C176.149 73.2211 175.933 73.2211 175.718 73.0951C174.733 72.6211 173.963 70.6621 173.778 69.9991C173.655 69.6191 173.286 69.3991 172.916 69.4931C172.738 69.5518 172.589 69.6755 172.497 69.8395C172.406 70.0034 172.38 70.1957 172.424 70.3781C172.516 70.6941 173.378 73.5681 175.133 74.3901C175.748 74.6741 176.395 74.6741 177.041 74.4221L178.488 77.3921L179.873 76.7281L177.103 70.3781C177.389 70.2149 177.639 69.9969 177.839 69.7368C178.04 69.4766 178.188 69.1794 178.273 68.8621C178.765 66.9661 177.164 64.4701 176.98 64.1861Z" fill="#B8AEF1"/>
<path d="M150.598 81.467C150.598 81.941 150.198 82.351 149.736 82.351C149.275 82.351 148.875 81.941 148.875 81.467C148.875 80.993 149.275 80.582 149.736 80.582C150.198 80.582 150.598 80.992 150.598 81.467ZM190.586 65.797C190.586 66.177 190.278 66.461 189.94 66.461C189.767 66.4576 189.601 66.386 189.48 66.2618C189.359 66.1375 189.292 65.9705 189.293 65.797C189.293 65.418 189.601 65.134 189.94 65.134C190.309 65.134 190.586 65.45 190.586 65.797Z" fill="#C7C7C7"/>
<path d="M206.803 56.894C207.025 56.988 207.247 57.02 207.491 56.988C208.357 56.862 208.979 55.73 208.868 54.535L208.002 43.968C207.913 42.741 207.114 41.861 206.27 42.018C205.404 42.144 204.783 43.276 204.894 44.471L205.76 55.038C205.804 55.918 206.226 56.642 206.803 56.894Z" fill="#B8AEF1"/>
<path d="M211.57 55.85C211.817 54.8143 211.646 53.7234 211.095 52.8124C210.544 51.9015 209.658 51.2434 208.626 50.98C208.119 50.8503 207.591 50.823 207.074 50.8996C206.556 50.9762 206.059 51.1552 205.611 51.4261C205.163 51.697 204.773 52.0544 204.465 52.4774C204.157 52.9004 203.936 53.3806 203.815 53.89C203.569 54.9256 203.74 56.0165 204.291 56.9275C204.841 57.8385 205.728 58.4966 206.759 58.76C207.267 58.8896 207.794 58.9169 208.312 58.8403C208.83 58.7637 209.327 58.5848 209.775 58.3139C210.223 58.043 210.612 57.6856 210.921 57.2625C211.229 56.8395 211.45 56.3593 211.57 55.85ZM167.715 46.93C167.824 47.145 167.974 47.312 168.181 47.445C168.926 47.905 170.13 47.437 170.813 46.45L176.942 37.8C177.662 36.802 177.616 35.614 176.868 35.192C176.124 34.732 174.92 35.2 174.237 36.187L168.108 44.837C167.576 45.541 167.434 46.367 167.715 46.93Z" fill="#B8AEF1"/>
<path d="M172.038 49.195C172.892 48.5595 173.462 47.614 173.625 46.5623C173.789 45.5105 173.533 44.4367 172.912 43.572C172.607 43.1468 172.22 42.7866 171.774 42.5125C171.329 42.2383 170.833 42.0557 170.316 41.9753C169.798 41.8949 169.271 41.9182 168.763 42.044C168.255 42.1698 167.777 42.3955 167.357 42.708C166.503 43.3432 165.932 44.2886 165.769 45.3404C165.605 46.3922 165.861 47.4663 166.482 48.331C166.787 48.7562 167.174 49.1164 167.62 49.3906C168.066 49.6647 168.562 49.8473 169.079 49.9277C169.596 50.0082 170.124 49.9848 170.632 49.859C171.14 49.7332 171.618 49.5075 172.038 49.195ZM189.509 36.796C179.812 33.447 170.977 29.846 163.712 26.402C168.053 33.542 176.241 40.018 186.677 43.62C197.02 47.19 207.271 47.19 214.905 44.252C207.363 42.482 198.651 39.955 189.509 36.796Z" fill="#B8AEF1"/>
<path d="M239.331 45.113C240.781 40.699 220.551 29.713 194.146 20.577C167.742 11.44 145.161 7.61197 143.71 12.027C142.26 16.441 162.49 27.427 188.894 36.563C215.299 45.699 237.88 49.527 239.331 45.113Z" fill="#B8AEF1"/>
<path d="M189.478 34.774C164.882 26.276 145.673 16.166 144.319 11.238C144.044 11.4314 143.839 11.7085 143.734 12.028C142.287 16.451 162.512 27.445 188.924 36.575C215.336 45.705 237.9 49.527 239.347 45.105C239.439 44.788 239.439 44.472 239.347 44.093C235.314 47.189 214.043 43.273 189.478 34.774Z" fill="white"/>
<path d="M193.326 25.044C205.578 29.277 217.491 30.983 217.491 30.983C219.707 18.346 212.658 5.58298 200.437 1.38198C188.185 -2.85203 175.01 2.96198 169.346 14.461C169.346 14.461 181.074 20.811 193.326 25.044Z" fill="#A99DEE"/>
</g>
<defs>
<linearGradient id="paint0_linear_2198_12690" x1="163.982" y1="-30.5" x2="163.982" y2="137.384" gradientUnits="userSpaceOnUse">
<stop stop-color="#EAEAEA"/>
<stop offset="0.476" stop-color="#EAEAEA"/>
<stop offset="1" stop-color="white"/>
</linearGradient>
<linearGradient id="paint1_linear_2198_12690" x1="150.499" y1="-59" x2="150.499" y2="102.45" gradientUnits="userSpaceOnUse">
<stop stop-color="#A99DEE"/>
<stop offset="0.476" stop-color="#B8AEF1"/>
<stop offset="1" stop-color="white" stop-opacity="0"/>
</linearGradient>
<clipPath id="clip0_2198_12690">
<rect width="328" height="160" fill="white"/>
</clipPath>
</defs>
</svg>
