<svg width="24" height="24" viewBox="0 0 24 24" fill="none" xmlns="http://www.w3.org/2000/svg">
<path d="M15.9844 10.8469C16.577 10.2766 16.9855 9.54212 17.1575 8.73788C17.3295 7.93364 17.2572 7.09633 16.9499 6.33349C16.6425 5.57065 16.1141 4.9171 15.4326 4.45676C14.7511 3.99643 13.9475 3.75032 13.1251 3.75006H6.00006C5.90122 3.7488 5.80313 3.76734 5.71156 3.80459C5.62 3.84183 5.53682 3.89703 5.46692 3.96692C5.39703 4.03682 5.34183 4.12 5.30459 4.21156C5.26734 4.30313 5.2488 4.40122 5.25006 4.50006V18.7501C5.25006 18.949 5.32908 19.1397 5.46973 19.2804C5.61038 19.421 5.80115 19.5001 6.00006 19.5001H14.2501C15.2904 19.5005 16.2987 19.1405 17.1034 18.4813C17.9082 17.8221 18.4597 16.9044 18.6642 15.8844C18.8686 14.8644 18.7134 13.8051 18.2248 12.8867C17.7362 11.9682 16.9445 11.2474 15.9844 10.8469ZM6.75006 5.25006H13.1251C13.8213 5.25006 14.4889 5.52662 14.9812 6.0189C15.4735 6.51119 15.7501 7.17887 15.7501 7.87506C15.7501 8.57125 15.4735 9.23893 14.9812 9.73122C14.4889 10.2235 13.8213 10.5001 13.1251 10.5001H6.75006V5.25006ZM14.2501 18.0001H6.75006V12.0001H14.2501C15.0457 12.0001 15.8088 12.3161 16.3714 12.8787C16.934 13.4413 17.2501 14.2044 17.2501 15.0001C17.2501 15.7957 16.934 16.5588 16.3714 17.1214C15.8088 17.684 15.0457 18.0001 14.2501 18.0001Z" fill="black"/>
</svg>
