<svg width="24" height="24" viewBox="0 0 24 24" fill="none" xmlns="http://www.w3.org/2000/svg">
<path d="M3 6.375C3 6.17609 3.07902 5.98532 3.21967 5.84467C3.36032 5.70402 3.55109 5.625 3.75 5.625H20.25C20.4489 5.625 20.6397 5.70402 20.7803 5.84467C20.921 5.98532 21 6.17609 21 6.375C21 6.57391 20.921 6.76468 20.7803 6.90533C20.6397 7.04598 20.4489 7.125 20.25 7.125H3.75C3.55109 7.125 3.36032 7.04598 3.21967 6.90533C3.07902 6.76468 3 6.57391 3 6.375ZM6 9.375C5.80109 9.375 5.61032 9.45402 5.46967 9.59467C5.32902 9.73532 5.25 9.92609 5.25 10.125C5.25 10.3239 5.32902 10.5147 5.46967 10.6553C5.61032 10.796 5.80109 10.875 6 10.875H18C18.1989 10.875 18.3897 10.796 18.5303 10.6553C18.671 10.5147 18.75 10.3239 18.75 10.125C18.75 9.92609 18.671 9.73532 18.5303 9.59467C18.3897 9.45402 18.1989 9.375 18 9.375H6ZM20.25 13.125H3.75C3.55109 13.125 3.36032 13.204 3.21967 13.3447C3.07902 13.4853 3 13.6761 3 13.875C3 14.0739 3.07902 14.2647 3.21967 14.4053C3.36032 14.546 3.55109 14.625 3.75 14.625H20.25C20.4489 14.625 20.6397 14.546 20.7803 14.4053C20.921 14.2647 21 14.0739 21 13.875C21 13.6761 20.921 13.4853 20.7803 13.3447C20.6397 13.204 20.4489 13.125 20.25 13.125ZM18 16.875H6C5.80109 16.875 5.61032 16.954 5.46967 17.0947C5.32902 17.2353 5.25 17.4261 5.25 17.625C5.25 17.8239 5.32902 18.0147 5.46967 18.1553C5.61032 18.296 5.80109 18.375 6 18.375H18C18.1989 18.375 18.3897 18.296 18.5303 18.1553C18.671 18.0147 18.75 17.8239 18.75 17.625C18.75 17.4261 18.671 17.2353 18.5303 17.0947C18.3897 16.954 18.1989 16.875 18 16.875Z" fill="black"/>
</svg>
