<svg width="44" height="32" viewBox="0 0 44 32" fill="none" xmlns="http://www.w3.org/2000/svg">
<path d="M42.6897 1.23089C42.4031 0.941896 42.062 0.712513 41.6863 0.555977C41.3106 0.39944 40.9076 0.318848 40.5005 0.318848C40.0935 0.318848 39.6905 0.39944 39.3148 0.555977C38.939 0.712513 38.598 0.941896 38.3114 1.23089L15.3405 24.2326L5.6897 14.5509C5.3921 14.2634 5.04078 14.0374 4.65581 13.8856C4.27084 13.7339 3.85975 13.6595 3.44603 13.6667C3.03231 13.6738 2.62404 13.7624 2.24455 13.9274C1.86506 14.0923 1.52177 14.3304 1.23429 14.628C0.946801 14.9256 0.72075 15.2769 0.569038 15.6619C0.417325 16.0468 0.342923 16.4579 0.350081 16.8716C0.357239 17.2854 0.445816 17.6936 0.610754 18.0731C0.775693 18.4526 1.01376 18.7959 1.31137 19.0834L13.1514 30.9234C13.438 31.2124 13.779 31.4418 14.1548 31.5983C14.5305 31.7548 14.9335 31.8354 15.3405 31.8354C15.7476 31.8354 16.1506 31.7548 16.5263 31.5983C16.902 31.4418 17.2431 31.2124 17.5297 30.9234L42.6897 5.76339C43.0027 5.47466 43.2524 5.12424 43.4233 4.7342C43.5941 4.34416 43.6823 3.92296 43.6823 3.49714C43.6823 3.07133 43.5941 2.65013 43.4233 2.26009C43.2524 1.87005 43.0027 1.51962 42.6897 1.23089Z" fill="black"/>
</svg>
