<svg width="24" height="24" viewBox="0 0 24 24" fill="none" xmlns="http://www.w3.org/2000/svg">
<path d="M18.825 5.05313C17.0084 3.25565 14.5556 2.24821 12 2.25H11.8969C9.60391 2.27242 7.39222 3.1023 5.65049 4.59379C3.90875 6.08528 2.74844 8.14293 2.37346 10.4051C1.99847 12.6673 2.43282 14.9893 3.60017 16.963C4.76752 18.9367 6.59316 20.4358 8.75625 21.1969C9.20862 21.3557 9.69246 21.4038 10.1672 21.3371C10.642 21.2704 11.0939 21.0909 11.485 20.8136C11.8761 20.5364 12.1951 20.1694 12.4152 19.7435C12.6353 19.3175 12.7501 18.8451 12.75 18.3656V18C12.75 17.6022 12.908 17.2206 13.1893 16.9393C13.4706 16.658 13.8522 16.5 14.25 16.5H18.5812C19.2625 16.5051 19.9248 16.276 20.4573 15.851C20.9898 15.4261 21.3601 14.8311 21.5062 14.1656C21.6767 13.428 21.7585 12.6727 21.75 11.9156C21.7424 10.6349 21.4799 9.36843 20.9777 8.1902C20.4755 7.01198 19.7437 5.94555 18.825 5.05313ZM20.0438 13.8375C19.969 14.1689 19.7832 14.4649 19.5172 14.6763C19.2512 14.8877 18.921 15.0019 18.5812 15H14.25C13.4551 15.0025 12.6935 15.3193 12.1314 15.8814C11.5693 16.4435 11.2525 17.2051 11.25 18V18.3656C11.25 18.6053 11.1926 18.8416 11.0826 19.0545C10.9726 19.2675 10.8131 19.451 10.6175 19.5896C10.4219 19.7283 10.196 19.818 9.95862 19.8514C9.72123 19.8847 9.47931 19.8607 9.25313 19.7813C7.64509 19.2106 6.25298 18.1564 5.26772 16.7632C4.28247 15.3701 3.75233 13.7063 3.75 12C3.75233 9.82725 4.61072 7.74293 6.13917 6.19868C7.66762 4.65444 9.74301 3.77466 11.9156 3.75H12C14.1729 3.75722 16.2558 4.61847 17.7992 6.1479C19.3427 7.67733 20.2229 9.75229 20.25 11.925C20.2571 12.5684 20.1879 13.2104 20.0438 13.8375ZM13.125 7.125C13.125 7.34751 13.059 7.56501 12.9354 7.75002C12.8118 7.93502 12.6361 8.07922 12.4305 8.16437C12.225 8.24952 11.9988 8.27179 11.7805 8.22839C11.5623 8.18498 11.3618 8.07783 11.2045 7.9205C11.0472 7.76316 10.94 7.56271 10.8966 7.34448C10.8532 7.12625 10.8755 6.90005 10.9606 6.69448C11.0458 6.48892 11.19 6.31322 11.375 6.1896C11.56 6.06598 11.7775 6 12 6C12.2984 6 12.5845 6.11853 12.7955 6.32951C13.0065 6.54049 13.125 6.82663 13.125 7.125ZM8.75625 10.125C8.64498 10.3176 8.4791 10.4729 8.27958 10.5713C8.08006 10.6697 7.85586 10.7067 7.63531 10.6777C7.41476 10.6486 7.20777 10.5549 7.04049 10.4082C6.87322 10.2616 6.75317 10.0686 6.69553 9.85379C6.63789 9.63894 6.64523 9.41182 6.71664 9.20114C6.78805 8.99047 6.92031 8.80569 7.09671 8.67016C7.27311 8.53464 7.48573 8.45445 7.7077 8.43974C7.92966 8.42502 8.15101 8.47645 8.34375 8.5875C8.60058 8.73832 8.78779 8.98409 8.86497 9.27175C8.94215 9.55941 8.9031 9.86589 8.75625 10.125ZM8.75625 13.875C8.86731 14.0677 8.91873 14.2891 8.90402 14.5111C8.8893 14.733 8.80912 14.9456 8.67359 15.122C8.53807 15.2984 8.35329 15.4307 8.14261 15.5021C7.93193 15.5735 7.70481 15.5809 7.48996 15.5232C7.27511 15.4656 7.08217 15.3455 6.93552 15.1783C6.78888 15.011 6.69512 14.804 6.6661 14.5834C6.63707 14.3629 6.67408 14.1387 6.77245 13.9392C6.87082 13.7397 7.02613 13.5738 7.21875 13.4625C7.47787 13.3157 7.78434 13.2766 8.072 13.3538C8.35967 13.431 8.60544 13.6182 8.75625 13.875ZM17.1937 9C17.3048 9.19275 17.3562 9.41409 17.3415 9.63606C17.3268 9.85802 17.2466 10.0706 17.1111 10.247C16.9756 10.4234 16.7908 10.5557 16.5801 10.6271C16.3694 10.6985 16.1423 10.7059 15.9275 10.6482C15.7126 10.5906 15.5197 10.4705 15.373 10.3033C15.2264 10.136 15.1326 9.92899 15.1036 9.70844C15.0746 9.48789 15.1116 9.26369 15.2099 9.06417C15.3083 8.86465 15.4636 8.69877 15.6562 8.5875C15.7843 8.51355 15.9256 8.46556 16.0722 8.44627C16.2188 8.42698 16.3677 8.43677 16.5105 8.47508C16.6533 8.51339 16.7871 8.57947 16.9044 8.66954C17.0216 8.75961 17.1199 8.8719 17.1937 9Z" fill="black"/>
</svg>
