<svg width="224" height="104" viewBox="0 0 224 104" fill="none" xmlns="http://www.w3.org/2000/svg">
<g clip-path="url(#clip0_2024_12998)">
<path d="M52.608 34.4605C52.608 34.4605 52.2985 44.4629 51.0221 48.9562L41.0039 56.0283L78.7558 61.7328L69.7433 49.1516C69.7433 49.1516 67.0357 35.7499 68.4668 30.7877C69.898 25.8256 52.608 34.4605 52.608 34.4605Z" fill="#FFB27D"/>
<path d="M52.5664 35.8672C52.5664 35.8672 55.5448 43.1346 61.1921 42.9783C66.8007 42.822 68.0771 36.3751 68.0771 36.3751L52.5664 35.8672Z" fill="#ED985F"/>
<path d="M49.202 29.968C49.202 29.968 47.3841 20.8251 46.1076 18.051C44.8312 15.2769 43.7868 2.89106 57.8277 2.26591C57.8277 2.26591 63.2042 2.89106 66.1826 1.09375C66.1826 1.09375 66.1826 2.89107 65.4477 3.5553C65.4477 3.5553 70.3213 2.38313 74.112 6.64199C77.9026 10.9008 71.5591 25.8654 71.9072 29.3819L49.202 29.968Z" fill="#2C3A64"/>
<path d="M60.5331 40.163C56.4717 40.0848 48.9678 34.6147 48.9678 27.8162V17.2277C48.9678 14.7661 50.6697 12.7344 52.7584 12.7344H68.3078C70.3965 12.7344 72.0984 14.7661 72.0984 17.2277V27.2301C72.0984 34.3412 65.2134 40.2411 60.5331 40.163Z" fill="#FFB27D"/>
<path d="M48.9679 22.8571C48.9679 22.8571 49.0066 16.4883 53.9963 15.5115C58.9861 14.5347 70.1646 18.5982 71.7505 13.9877C73.3363 9.33812 50.167 9.41627 49.0066 12.3858C47.7689 15.3552 48.9679 22.8571 48.9679 22.8571Z" fill="#2C3A64"/>
<path d="M88.8091 139.174C88.8091 139.174 73.8012 142.105 60.1085 142.105C54.1517 142.105 47.6535 141.441 42.4704 140.737C36.7457 139.956 32.6843 139.174 32.6843 139.174C32.6843 139.174 29.6286 139.448 31.4466 124.288C32.8004 112.762 32.3749 102.369 32.0654 91.6237C32.0268 90.4516 32.0655 89.0059 32.1428 87.443C32.723 74.94 36.475 52.4735 39.2986 51.2623C39.2986 51.2623 43.5534 49.6603 51.0187 48.8789C51.0187 49.0352 55.3508 55.443 60.5339 56.1463C63.7444 54.8569 66.2586 53.7629 69.7398 49.0743C74.188 49.5822 79.023 50.4809 84.2062 51.8874C84.2062 51.8874 84.7477 54.2709 86.7977 95.57C87.61 112.058 93.1026 139.253 88.8091 139.174Z" fill="#B8AEF1"/>
<path d="M18.2183 100.67C17.8702 100.983 19.108 104.109 20.9646 108.172C24.7552 116.534 31.0214 128.88 31.0214 128.88C30.1318 132.358 29.1261 134.507 29.1261 134.507C18.5664 126.106 11.7588 118.995 7.38792 113.525C1.27648 105.828 0 101.413 0 101.413C23.5175 53.0024 40.1112 51.2441 40.1112 51.2441L38.1385 83.2442C38.1385 83.2051 19.3014 99.7716 18.2183 100.67ZM93.0257 151.836C89.5058 158.947 76.2772 158.673 76.2772 158.673C73.8404 139.84 73.2988 49.6621 73.2988 49.6621C77.7857 50.2091 83.7038 51.8111 83.7038 51.8111C87.9973 60.2116 89.5058 75.9185 89.8926 87.015C90.086 93.2274 89.9313 97.9552 89.7379 99.1664C89.3898 100.925 89.8152 109.364 90.4728 118.976C91.4785 133.941 93.0257 151.836 93.0257 151.836Z" fill="#624CE0"/>
<path d="M47.5398 49.3867C47.5398 49.3867 46.6501 139.799 44.2133 158.671C44.2133 158.671 30.9847 158.945 27.4648 151.834C27.4648 151.834 32.8801 96.1951 32.0291 91.6627C31.4489 88.4979 32.9961 62.554 38.682 51.4185C38.7594 51.4185 43.7491 49.8556 47.5398 49.3867ZM121.922 101.235C121.922 101.235 120.684 105.65 114.534 113.347C110.202 118.817 103.356 125.967 92.7959 134.329C92.7959 134.329 91.7902 132.18 90.9006 128.702C90.9006 128.702 97.1668 116.356 100.957 107.994C102.814 103.931 104.052 100.805 103.704 100.492C102.853 99.7891 91.3648 89.6695 86.2203 85.1762C84.7118 83.8477 83.7835 83.0272 83.7835 83.0272L82.6231 51.5352C82.5844 51.5352 98.3658 52.8636 121.922 101.235Z" fill="#624CE0"/>
<path d="M103.699 100.492C102.848 99.7884 91.3602 89.6687 86.2158 85.1754C86.2158 85.1754 91.3216 81.3073 94.4933 86.9337C97.6651 92.6382 103.699 100.492 103.699 100.492ZM121.921 101.238C121.921 101.238 120.683 105.653 114.533 113.351C107.455 113.272 121.921 101.238 121.921 101.238Z" fill="#233862"/>
<path d="M90.4731 118.938C82.9693 97.6046 86.1797 85.1797 86.1797 85.1797L89.8929 86.977C90.0863 93.1895 89.9315 97.9172 89.7381 99.1284C89.4287 100.926 89.8542 109.326 90.4731 118.938ZM173.323 26.9207C173.323 26.9207 169.61 16.254 169.416 13.4799C169.223 10.7058 170.461 2.69597 179.589 1.83638C188.756 0.976795 192.16 0 192.16 0L190.42 2.07082C190.42 2.07082 192.973 1.28937 195.603 3.04762C198.233 4.80586 199.587 10.0025 199.2 14.4957C198.813 18.989 195.332 23.9121 195.293 25.7485C195.255 27.5849 173.323 26.9207 173.323 26.9207Z" fill="#233862"/>
<path d="M175.028 43.4492C175.028 43.4492 170.773 66.3845 166.17 90.3357C161.142 116.397 155.649 143.63 154.682 143.943C152.787 144.568 149.886 142.067 148.648 138.902C147.643 136.363 145.902 115.303 147.062 101.706C147.333 98.3845 147.681 95.6495 148.068 93.9694C149.963 85.3735 150.544 54.9755 156.191 50.2087C161.877 45.481 175.028 43.4492 175.028 43.4492Z" fill="#D9935C"/>
<path d="M175.025 43.4492C175.025 43.4492 172.588 56.6556 169.378 73.5347C168.372 78.8876 167.289 84.5921 166.167 90.3748C161.642 99.3613 157.735 105.457 156.536 104.323C154.099 101.979 149.767 101.706 147.06 101.784C147.33 98.4627 147.678 95.7276 148.065 94.0475C148.22 93.3833 148.375 92.5628 148.491 91.6251C150.077 80.8021 150.966 54.6629 156.188 50.2868C161.874 45.481 175.025 43.4492 175.025 43.4492Z" fill="#51D258"/>
<path d="M169.417 73.5349C168.411 78.8878 167.328 84.5924 166.207 90.375C161.681 99.3616 157.774 105.457 156.575 104.324C154.138 101.979 149.806 101.706 147.099 101.784C147.369 98.4629 147.718 95.7279 148.104 94.0478C148.259 93.3836 148.414 92.563 148.53 91.6253L162.106 58.4922L169.417 73.5349Z" fill="#00A61B"/>
<path d="M193.864 43.1364C193.98 38.5259 193.903 32.9777 193.284 28.3281L174.988 31.3367C174.988 31.3367 174.988 36.963 175.066 43.2146C175.066 43.2146 174.563 48.9972 181.641 49.8568C188.681 50.7164 194.058 47.5906 193.864 43.1364Z" fill="#D9935C"/>
<path d="M174.949 32.4727C174.949 32.4727 179.243 41.3811 184.194 41.3811C189.145 41.3811 193.748 32.9806 193.748 32.9806L174.949 32.4727Z" fill="#CB7D45"/>
<path d="M175.528 33.1333C177.307 34.5399 182.529 35.9465 183.999 36.1028C183.999 36.1028 191.735 34.3446 193.128 33.5241C195.294 32.1956 195.178 29.4996 195.255 25.7487C195.371 21.3336 195.835 17.8171 195.332 15.2774C194.752 12.2298 192.818 10.4716 187.442 10.0027C177.578 9.14311 173.478 11.6437 173.285 14.9648C173.246 15.8635 173.207 16.7231 173.169 17.5436C172.859 27.9368 173.672 31.6486 175.528 33.1333Z" fill="#D9935C"/>
<path d="M210.033 131.088C210.111 132.768 208.796 134.175 207.132 134.214L175.879 134.682L152.903 135.034C151.82 135.034 155.224 126.36 155.301 69.7056C155.301 57.0463 174.68 43.4492 175.067 43.4492C175.067 45.2856 177.89 48.6458 182.3 48.9193C187.483 49.271 193.865 46.6531 193.865 43.6446C193.865 43.6055 194.484 44.2697 195.451 45.7154C198.043 49.5445 203.264 58.8436 206.591 75.0194C209.221 87.796 208.215 104.91 210.111 126.946C210.188 128.548 209.995 129.955 210.033 131.088Z" fill="#FBA003"/>
<path d="M208.873 134.37C208.873 134.37 204.734 136.245 196.96 137.886C191.196 139.098 183.422 140.153 173.868 140.231C158.666 140.309 152.903 135.034 152.903 135.034C151.82 135.034 155.224 126.36 155.301 69.7056C155.301 57.0463 174.68 43.4492 175.067 43.4492C175.067 43.4492 174.564 60.2893 179.592 65.2514C179.592 65.2514 186.671 59.7423 195.838 44.0353C198.429 47.8644 203.226 58.8045 206.552 75.0194C207.21 78.3015 207.674 81.8961 207.983 85.7642C208.873 96.9389 208.68 110.575 210.072 126.946C210.227 128.548 209.995 129.955 210.034 131.088C210.111 132.768 210.536 134.331 208.873 134.37Z" fill="#51D258"/>
<path d="M208.874 134.37C208.874 134.37 204.735 136.245 196.96 137.886C194.523 134.136 191.429 127.337 191.004 116.592C190.269 98.4627 207.327 75.1367 207.327 75.1367L207.984 85.7643C208.874 96.9389 208.68 110.575 210.073 126.946C210.228 128.548 209.996 129.955 210.034 131.088C210.112 132.768 210.537 134.331 208.874 134.37Z" fill="#00A61B"/>
<path d="M194.104 73.0212L165.062 89.959L188.058 130.19L217.1 113.253L194.104 73.0212Z" fill="#5341BE"/>
<path d="M221.675 110.653C221.675 110.653 215.718 111.239 205.545 110.184C198.196 109.403 188.681 107.801 177.618 104.519L180.867 98.9315C180.867 98.9315 194.096 98.3454 203.805 96.8997C206.203 96.5481 208.407 96.1183 210.148 95.6885C212.275 95.1024 201.793 68.3381 196.494 52.553C195.218 48.802 194.251 45.6763 193.825 43.6836C193.825 43.6836 194.753 43.8399 196.185 44.1134C200.285 44.9339 208.64 46.8484 212.198 49.5835C217.033 53.2172 229.024 94.6336 221.675 110.653Z" fill="#D9935C"/>
<path d="M180.986 98.9307C180.986 98.9307 176.499 94.6719 174.758 94.6719C173.017 94.6719 168.028 96.5083 167.525 97.9149C167.022 99.3215 166.829 101.861 168.221 102.447C169.652 102.994 175.57 104.44 177.079 104.557C178.626 104.713 182.378 103.854 180.986 98.9307Z" fill="#D9935C"/>
<path d="M221.674 110.653C221.674 110.653 215.717 111.239 205.544 110.184C206.124 107.41 206.627 101.94 203.765 96.8996C206.163 96.548 208.368 96.1182 210.108 95.6884C212.236 95.1023 201.754 68.338 196.454 52.5529C196.029 47.4735 195.797 44.0352 195.797 44.0352L196.145 44.0742C200.245 44.8947 208.6 46.8093 212.159 49.5443C217.032 53.2171 229.023 94.6335 221.674 110.653Z" fill="#51D258"/>
<path d="M179.59 65.2479C179.59 65.2479 193.747 58.9573 193.94 58.4494C194.134 57.9415 193.244 54.1515 192.277 53.0184C192.277 53.0184 199.085 53.6435 199.471 52.823C199.897 51.9634 200.013 44.8914 200.013 44.8914C200.013 44.8914 197.344 42.0782 193.863 41.7656C193.863 41.7656 190.807 49.4628 189.647 51.729C186.668 57.8242 179.59 65.2479 179.59 65.2479ZM176.224 52.7875C176.224 52.7875 177.153 60.1331 179.59 65.2515C179.59 65.2515 172.202 60.0549 171.583 58.3748C170.964 56.6947 173.362 53.3736 173.362 53.3736C173.362 53.3736 168.953 53.2564 168.837 51.7716C168.721 50.2869 170.19 44.4652 170.19 44.4652C170.19 44.4652 173.981 41.652 175.025 41.7692L176.224 52.7875Z" fill="#00A61B"/>
<path d="M173.131 20.8642C173.131 20.8642 173.518 14.2219 177.579 14.1438C181.641 14.0656 188.758 13.6749 191.697 10.8617C194.637 8.04851 174.175 9.33789 174.175 9.33789C174.175 9.33789 171.738 17.3477 173.131 20.8642Z" fill="#233862"/>
<path d="M189.53 11.8386C189.53 11.8386 194.829 14.0266 195.603 17.4259C195.603 17.4649 197.344 4.88374 189.53 11.8386Z" fill="#233862"/>
<path d="M143.814 158.672C143.814 158.672 129.271 121.788 130.044 120.734C130.509 120.069 131.437 99.9472 132.094 84.8263C132.481 75.6444 132.752 68.2598 132.752 68.2598C132.752 68.2598 139.212 70.565 140.759 86.4283C141.068 89.4759 141.223 92.3672 141.339 95.0632C141.765 106.316 140.952 114.208 142.615 117.959C144.665 122.609 143.931 143.786 144.588 145.896C145.13 148.045 148.417 153.359 143.814 158.672Z" fill="#FFB27D"/>
<path d="M95.4242 138.666C92.0977 133.586 103.508 112.839 103.083 110.885C102.27 107.017 100.414 102.758 98.5572 98.9294C96.7006 95.1003 94.9213 91.7011 94.2638 89.5521C94.844 88.7316 95.4242 87.9502 95.9657 87.2078C96.778 86.0747 97.4742 85.0198 97.9384 84.043C98.4412 82.988 98.6733 82.0112 98.4025 81.0344C98.2091 80.292 97.977 79.5887 97.6676 78.8854C97.5128 78.5338 97.3581 78.2212 97.2034 77.9086C95.5015 74.4703 92.9873 71.6962 92.9873 71.6962C97.01 69.1174 103.315 67.789 103.392 67.9843C103.856 67.8281 104.282 67.7108 104.63 67.6327C104.862 67.5545 105.094 67.5155 105.326 67.4764C106.138 67.281 106.912 67.1248 107.608 67.0075C109.039 65.5619 110.78 60.1309 110.239 52.1602L110.935 52.2383L122.616 53.8403C122.616 53.8403 122.577 57.513 122.771 60.9904C122.926 63.6864 123.235 66.2652 123.815 66.8122C124.705 66.8903 125.285 66.9294 125.285 66.9294V66.9685C125.943 67.0075 126.562 67.0857 127.103 67.1638H127.219C128.263 67.281 129.076 67.3983 129.772 67.5155C129.811 67.5155 129.888 67.5545 129.927 67.5545C131.938 67.9453 132.596 68.2578 132.596 68.2578V68.2969C132.48 72.0088 138.436 78.5338 138.011 86.9343C138.011 87.2469 134.955 109.323 134.994 109.635C135.226 115.926 138.281 133.586 138.281 133.586C141.182 139.056 97.2421 143.901 95.4242 138.666Z" fill="#FFB27D"/>
<path d="M106.25 23.7535C106.018 23.1284 103.504 16.6424 93.3312 19.4947C93.3312 19.4947 98.4369 18.5179 99.9841 20.4324C99.9841 20.4324 95.768 18.7914 93.3312 20.5496C90.8557 22.3078 90.7783 27.6607 91.2424 29.2627C91.7066 30.8646 94.8397 35.5142 96.735 35.397C97.4313 35.3579 98.2048 35.0844 98.8237 34.7328C98.5916 35.5923 98.3982 36.5691 98.2435 37.585C96.8124 47.1577 103.504 53.9562 106.598 52.0026C108.61 50.7523 110.389 54.2688 110.389 54.2688L126.132 30.2785C126.093 30.2785 113.29 16.5252 106.25 23.7535Z" fill="#2C3A64"/>
<path d="M122.693 53.8012C122.693 53.8012 122.654 57.4739 122.848 60.9514C116.388 61.1858 112.598 55.4422 111.012 52.1992L122.693 53.8012Z" fill="#ED985F"/>
<path d="M125.051 56.9617C125.051 56.9617 109.772 58.1729 109.192 48.5612C108.612 38.9494 106.214 32.6198 115.961 31.4476C125.67 30.2754 127.797 33.831 128.764 36.9958C129.731 40.1216 128.996 56.3756 125.051 56.9617Z" fill="#FFB27D"/>
<path d="M127.953 31.6443C125.4 28.9093 123.659 29.6516 122.731 30.5893C114.105 26.4477 109.116 33.676 109.116 33.676C108.497 40.6309 103.816 44.8897 103.816 44.8897C103.816 44.8897 106.717 46.4526 113.022 44.3818C114.956 43.7566 116.62 42.2328 118.012 40.4355C115.691 45.0069 112.326 48.4062 112.326 48.4062C119.791 44.3427 122.228 33.3635 122.46 32.2304C123.427 33.0118 125.4 34.731 126.057 36.5283C126.986 38.9117 127.605 43.952 129.074 43.6785C129.074 43.6394 131.782 35.7469 127.953 31.6443Z" fill="#2C3A64"/>
<path d="M135.108 109.635C135.108 109.44 136.036 102.524 136.887 96.3509C138.705 96.1556 140.948 95.7258 142.882 94.788C142.766 92.0921 141.026 69.1177 131.433 67.8283C130.969 67.7111 130.505 67.5939 130.041 67.5157C130.002 67.5157 129.963 67.5157 129.886 67.4767C128.725 67.2422 127.681 67.125 127.333 67.0859H127.217C127.217 67.0859 130.079 75.252 130.002 76.2288C129.963 77.2056 120.796 77.5182 114.762 77.5963C108.805 77.6745 105.44 67.5939 105.363 67.4376C105.131 67.4767 104.899 67.5548 104.666 67.5939C104.318 67.672 96.3503 68.9223 93.0625 71.6964C93.0625 71.6964 95.6153 74.4706 97.2786 77.9089C97.4333 78.2215 97.588 78.5731 97.7428 78.8857C98.0522 79.589 98.2843 80.2923 98.4777 81.0347C98.7098 81.9724 98.5163 82.9883 98.0135 84.0432C97.5494 85.02 96.8531 86.075 96.0408 87.208C95.4993 87.9504 94.9191 88.7319 94.3389 89.5524C94.571 90.2947 94.9191 91.1543 95.3833 92.1702C96.2343 94.0847 97.4333 96.429 98.6324 98.9297C100.489 102.759 102.346 107.057 103.158 110.886C103.545 112.839 92.1728 133.587 95.4993 138.666C96.0408 140.19 100.257 140.893 105.827 140.893C119.171 140.971 140.407 137.416 138.434 133.548C138.395 133.587 135.34 115.887 135.108 109.635Z" fill="#FDDF82"/>
<path d="M105.788 140.931C100.179 140.892 95.9632 140.227 95.4603 138.703C92.1338 133.624 103.545 112.877 103.119 110.923C102.307 107.055 100.45 102.796 98.5934 98.9672C97.3943 96.4666 96.1952 94.1223 95.3443 92.2077C95.8084 90.3323 96.0792 89.2383 96.0792 89.2383C96.0792 89.2383 108.225 103.5 110.971 110.22C113.176 115.456 108.07 133.39 105.788 140.931Z" fill="#FCD450"/>
<path d="M100.025 131.239L97.6267 135.42C82.1933 129.247 72.3686 115.337 72.3686 115.337C71.827 107.445 75.5016 98.3798 79.8725 90.5263C80.6074 89.2369 81.3423 87.9866 82.0773 86.7363C85.1717 89.3932 89.5038 92.9097 93.6039 95.4494C92.9464 96.5044 92.2115 97.7937 91.3605 99.1613C87.9566 104.866 83.5084 112.133 82.9669 112.719C82.0386 113.774 100.025 131.239 100.025 131.239Z" fill="#FFB27D"/>
<path d="M92.0181 100.958C84.4367 100.45 78.8281 90.4871 78.8281 90.4871C84.7462 79.8985 93.0237 71.6934 93.0237 71.6934C114.104 79.8204 95.4606 98.6922 92.0181 100.958Z" fill="#FDDF82"/>
</g>
<defs>
<clipPath id="clip0_2024_12998">
<rect width="224" height="104" fill="white"/>
</clipPath>
</defs>
</svg>
