<svg width="98" height="26" viewBox="0 0 98 26" fill="none" xmlns="http://www.w3.org/2000/svg">
<path d="M1.52588e-05 16.7276C1.52588e-05 14.8877 0.371153 13.3058 1.11343 11.9819C1.8557 10.6356 2.89271 9.61471 4.22444 8.91913C5.578 8.22355 7.13896 7.87576 8.90732 7.87576C10.8503 7.87576 12.4222 8.30209 13.623 9.15473C14.8237 9.98494 15.6751 11.0508 16.1773 12.3522C16.6794 13.6311 16.9305 14.9999 16.9305 16.4583H6.84423C6.90973 17.0417 7.01889 17.5914 7.17171 18.1075C7.47735 19.1846 7.99039 20.0372 8.71084 20.6655C9.43128 21.2713 10.3919 21.5742 11.5926 21.5742C12.4004 21.5742 13.1645 21.462 13.8849 21.2376C14.6272 21.0133 15.4677 20.6318 16.4065 20.0933L16.5375 20.1943C16.2973 21.002 15.8389 21.8322 15.1621 22.6849C14.4853 23.5151 13.6011 24.2219 12.5095 24.8053C11.418 25.3662 10.1626 25.6467 8.74359 25.6467C7.3027 25.6467 5.90547 25.3326 4.55191 24.7043C3.22018 24.0536 2.1286 23.0551 1.27717 21.7088C0.425732 20.3626 1.52588e-05 18.7021 1.52588e-05 16.7276ZM10.9049 14.237C10.9049 12.8458 10.763 11.7015 10.4792 10.8039C10.2172 9.88397 9.66052 9.42399 8.80908 9.42399C7.95765 9.42399 7.39003 9.88397 7.10621 10.8039C6.8224 11.7015 6.6805 12.7673 6.6805 14.0014C6.6805 14.0911 6.6805 14.1809 6.6805 14.2706C6.6805 14.7194 6.70233 15.1569 6.74599 15.5832L10.9049 14.237Z" fill="#5333EE"/>
<path d="M19.2788 11.7463C19.8683 10.4449 20.6542 9.48009 21.6366 8.85182C22.619 8.20112 23.6888 7.87576 24.8459 7.87576C26.1558 7.87576 27.3456 8.26843 28.4153 9.05376C28.9393 9.48009 29.3759 9.97372 29.7252 10.5347V6.42851C29.7252 4.90272 29.2231 3.15255 28.2189 1.178C28.1534 1.06581 28.1206 0.998495 28.1206 0.976058V0.841429L35.8818 0V19.4875C35.8818 20.385 35.9582 21.2264 36.111 22.0117C36.2856 22.7746 36.5149 23.6946 36.7987 24.7716L36.8969 25.1082V25.2428H31.3299C31.2425 25.1082 31.1552 24.9736 31.0679 24.8389C31.0024 24.7043 30.926 24.5697 30.8387 24.4351C30.4893 23.8741 30.2274 23.358 30.0527 22.8868C30.0309 22.842 30.02 22.8083 30.02 22.7859C29.9108 22.5615 29.8344 22.2922 29.7907 21.9781C29.7471 21.6415 29.7252 21.2713 29.7252 20.8674V12.0156C29.5288 11.881 29.3214 11.7688 29.103 11.679C28.6664 11.522 28.2516 11.4434 27.8586 11.4434C27.16 11.4434 26.6033 11.679 26.1885 12.1502C25.7737 12.599 25.479 13.2048 25.3043 13.9677C25.1297 14.7082 25.0424 15.5608 25.0424 16.5256C25.0424 18.2534 25.2498 19.6782 25.6646 20.8001C26.1012 21.922 26.8762 22.4829 27.9896 22.4829C28.3826 22.4829 28.8083 22.3932 29.2668 22.2137C29.4414 22.1688 29.6161 22.0903 29.7907 21.9781C30.0964 21.821 30.402 21.6303 30.7077 21.4059L30.8059 21.3723C30.5876 21.9332 30.3365 22.4381 30.0527 22.8868C29.5724 23.6273 29.0048 24.1995 28.3498 24.6033C27.2801 25.2765 26.1994 25.6131 25.1078 25.6131C23.9944 25.6131 22.9247 25.2765 21.8986 24.6033C20.8725 23.9302 20.032 22.9205 19.377 21.5742C18.7221 20.2055 18.3946 18.5226 18.3946 16.5256C18.3946 14.6408 18.6893 13.0477 19.2788 11.7463Z" fill="#5333EE"/>
<path d="M38.6479 8.07771H45.8196V19.0836C45.8196 20.0035 46.027 20.6655 46.4418 21.0693C46.8566 21.4508 47.4024 21.6415 48.0792 21.6415C48.6468 21.6415 49.3236 21.5069 50.1095 21.2376C50.3715 21.1703 50.6335 21.0806 50.8954 20.9684L50.6662 21.5069C50.5571 21.7761 50.4261 22.0454 50.2732 22.3147C49.8148 23.1449 49.2472 23.8517 48.5704 24.4351C47.6753 25.198 46.5182 25.5794 45.0991 25.5794C43.5054 25.5794 42.1955 25.0858 41.1695 24.0985C40.1652 23.0888 39.6631 21.7201 39.6631 19.9923V13.8331C39.6631 12.9355 39.5757 12.1053 39.4011 11.3424C39.2483 10.5571 39.03 9.62593 38.7461 8.54891L38.6479 8.21233V8.07771ZM49.0616 8.21233V8.07771H56.2333V19.4875C56.2333 20.385 56.3097 21.2264 56.4625 22.0117C56.6372 22.7746 56.8664 23.6946 57.1502 24.7716L57.2485 25.1082V25.2428H51.6486L51.5177 25.0072C51.0592 24.2668 50.7099 23.5488 50.4697 22.8532C50.4042 22.6961 50.3387 22.5166 50.2732 22.3147C50.2077 21.9781 50.1532 21.6191 50.1095 21.2376C50.0877 20.9684 50.0768 20.6767 50.0768 20.3626V13.8331C50.0768 12.9355 49.9894 12.1053 49.8148 11.3424C49.662 10.5571 49.4436 9.62593 49.1598 8.54891L49.0616 8.21233Z" fill="#5333EE"/>
<path d="M58.8723 0.807772L59.8874 0.673143L66.1422 0V19.4875C66.1422 20.385 66.2186 21.2264 66.3714 22.0117C66.5461 22.7746 66.7753 23.6946 67.0591 24.7716L67.1574 25.1082V25.2428H58.9705V25.1082L59.0688 24.7716C59.3526 23.6946 59.5709 22.7746 59.7237 22.0117C59.8984 21.2264 59.9857 20.385 59.9857 19.4875V6.42851C59.9857 5.53099 59.8874 4.66712 59.691 3.83691C59.4945 2.98426 59.2652 2.13162 59.0033 1.27897C58.9378 1.07703 58.905 0.964838 58.905 0.942399L58.8723 0.807772ZM66.5679 16.391L70.1701 13.059C70.9779 12.3409 71.3818 11.578 71.3818 10.7703C71.3818 10.7478 71.3709 10.5235 71.3491 10.0971C71.3272 9.64837 71.1635 9.09864 70.8578 8.44794L70.7923 8.24599V8.07771H77.8658V8.24599L71.742 13.7658L77.964 25.0745V25.2428H70.8578L66.5679 16.391Z" fill="#5333EE"/>
<path d="M78.9915 20.026C78.9915 18.9265 79.2753 17.9505 79.8429 17.0978C80.4105 16.2452 81.1747 15.5945 82.1352 15.1457C83.0958 14.6745 84.1219 14.4389 85.2135 14.4389C85.672 14.4389 86.1741 14.4838 86.7199 14.5735C87.2875 14.6408 87.8661 14.7643 88.4555 14.9438C88.6302 15.0111 88.8048 15.0784 88.9795 15.1457V13.3282C88.9795 11.9371 88.9358 10.961 88.8485 10.4C88.783 9.8391 88.5865 9.55862 88.259 9.55862C87.6696 9.55862 86.6544 10.0298 85.2135 10.9722C83.7944 11.8922 82.2553 13.0141 80.5961 14.3379H80.4324V9.02011C82.0042 8.6611 83.5216 8.38062 84.9843 8.17868C86.4688 7.97674 87.6914 7.87576 88.652 7.87576C90.9443 7.87576 92.5926 8.4255 93.5969 9.52496C94.6229 10.602 95.136 12.038 95.136 13.8331V19.6221C95.136 20.7889 95.2342 21.5293 95.4307 21.8435C95.649 22.1352 95.8892 22.281 96.1512 22.281C96.435 22.281 96.7843 22.1688 97.1991 21.9444L97.2973 22.0454C97.2318 23.0776 96.8389 23.9302 96.1184 24.6033C95.4198 25.254 94.4701 25.5794 93.2694 25.5794C91.9158 25.5794 90.8679 25.1419 90.1256 24.2668C89.7327 23.818 89.4379 23.2907 89.2414 22.6849C89.1759 22.3932 89.1105 22.0903 89.045 21.7761C89.0013 21.3947 88.9795 20.9908 88.9795 20.5645V16.3237C88.8485 16.2788 88.7284 16.2452 88.6192 16.2227C88.4009 16.2003 88.1935 16.1891 87.997 16.1891C87.3857 16.1891 86.8836 16.3125 86.4907 16.5593C86.0977 16.7837 85.8139 17.109 85.6392 17.5354C85.4646 17.9617 85.3772 18.4553 85.3772 19.0163C85.3772 19.9362 85.5846 20.6991 85.9994 21.3049C86.4361 21.8883 87.0474 22.18 87.8333 22.18C88.1826 22.18 88.4992 22.1015 88.783 21.9444C88.8703 21.8996 88.9576 21.8435 89.045 21.7761C89.2414 21.6191 89.4379 21.4171 89.6344 21.1703L89.6017 21.7425C89.5362 22.0342 89.4161 22.3483 89.2414 22.6849C89.1323 22.9093 88.9904 23.1449 88.8157 23.3917C88.3791 23.9975 87.7787 24.5136 87.0146 24.9399C86.2505 25.3662 85.3445 25.5794 84.2966 25.5794C83.1832 25.5794 82.2226 25.3101 81.4148 24.7716C80.607 24.2331 79.9957 23.5375 79.5809 22.6849C79.188 21.8322 78.9915 20.9459 78.9915 20.026Z" fill="#5333EE"/>
</svg>
