<svg width="100" height="26" viewBox="0 0 100 26" fill="none" xmlns="http://www.w3.org/2000/svg">
<path d="M0 16.7134C0 14.8751 0.381447 13.2945 1.14434 11.9718C1.90724 10.6266 2.97304 9.60657 4.34177 8.91158C5.73293 8.21659 7.33725 7.86909 9.15473 7.86909C11.1517 7.86909 12.7673 8.29506 14.0014 9.14698C15.2355 9.97649 16.1105 11.0414 16.6266 12.3417C17.1427 13.6196 17.4007 14.9871 17.4007 16.4444H7.03434C7.10165 17.0273 7.21384 17.5766 7.37091 18.0922C7.68504 19.1683 8.21233 20.0202 8.95279 20.648C9.69325 21.2533 10.6805 21.5559 11.9146 21.5559C12.7448 21.5559 13.5302 21.4438 14.2706 21.2197C15.0335 20.9955 15.8974 20.6143 16.8622 20.0763L16.9968 20.1772C16.75 20.9843 16.2788 21.8138 15.5832 22.6657C14.8877 23.4952 13.9789 24.2014 12.857 24.7843C11.7351 25.3448 10.4449 25.625 8.98645 25.625C7.50554 25.625 6.0695 25.3111 4.67834 24.6834C3.30962 24.0332 2.18771 23.0356 1.31263 21.6905C0.437542 20.3453 0 18.6863 0 16.7134ZM11.2078 14.2249C11.2078 12.8349 11.062 11.6915 10.7703 10.7948C10.501 9.8756 9.92885 9.41601 9.05376 9.41601C8.17868 9.41601 7.59529 9.8756 7.30359 10.7948C7.0119 11.6915 6.86605 12.7565 6.86605 13.9895C6.86605 14.0792 6.86605 14.1689 6.86605 14.2585C6.86605 14.7069 6.88849 15.1441 6.93336 15.57L11.2078 14.2249Z" fill="white"/>
<path d="M19.8143 11.7364C20.4201 10.4361 21.2279 9.47206 22.2376 8.84432C23.2473 8.19417 24.3468 7.86909 25.536 7.86909C26.8823 7.86909 28.1052 8.26143 29.2046 9.04609C29.7432 9.47206 30.1919 9.96528 30.5509 10.5258V6.42306C30.5509 4.89857 30.0348 3.14988 29.0027 1.177C28.9354 1.06491 28.9017 0.99765 28.9017 0.975231V0.840716L36.8785 0V19.471C36.8785 20.3677 36.957 21.2084 37.1141 21.9931C37.2936 22.7554 37.5292 23.6745 37.8209 24.7507L37.9218 25.0869V25.2215H32.2001C32.1104 25.0869 32.0206 24.9524 31.9309 24.8179C31.8636 24.6834 31.785 24.5489 31.6953 24.4144C31.3363 23.8539 31.067 23.3383 30.8875 22.8675C30.8651 22.8226 30.8538 22.789 30.8538 22.7666C30.7416 22.5424 30.6631 22.2733 30.6182 21.9595C30.5734 21.6232 30.5509 21.2533 30.5509 20.8497V12.0054C30.349 11.8709 30.1358 11.7588 29.9114 11.6691C29.4627 11.5122 29.0364 11.4337 28.6325 11.4337C27.9145 11.4337 27.3423 11.6691 26.916 12.1399C26.4896 12.5883 26.1867 13.1936 26.0072 13.9559C25.8277 14.6957 25.738 15.5476 25.738 16.5116C25.738 18.2379 25.9511 19.6615 26.3774 20.7825C26.8262 21.9034 27.6228 22.4639 28.7671 22.4639C29.171 22.4639 29.6085 22.3742 30.0797 22.1949C30.2592 22.15 30.4387 22.0716 30.6182 21.9595C30.9324 21.8025 31.2465 21.612 31.5606 21.3878L31.6616 21.3542C31.4372 21.9146 31.1792 22.4191 30.8875 22.8675C30.3939 23.6073 29.8105 24.179 29.1373 24.5825C28.0379 25.2551 26.9272 25.5914 25.8053 25.5914C24.6609 25.5914 23.5615 25.2551 22.5069 24.5825C21.4523 23.9099 20.5884 22.9011 19.9153 21.5559C19.2421 20.1884 18.9056 18.5069 18.9056 16.5116C18.9056 14.6284 19.2085 13.0367 19.8143 11.7364Z" fill="white"/>
<path d="M39.7214 8.07087H47.0923V19.0674C47.0923 19.9866 47.3055 20.648 47.7318 21.0515C48.1581 21.4326 48.7191 21.6232 49.4147 21.6232C49.9981 21.6232 50.6937 21.4887 51.5014 21.2197C51.7707 21.1524 52.0399 21.0627 52.3092 20.9506L52.0736 21.4887C51.9614 21.7577 51.8268 22.0267 51.6697 22.2958C51.1985 23.1253 50.6151 23.8315 49.9195 24.4144C48.9996 25.1766 47.8104 25.5577 46.3519 25.5577C44.7139 25.5577 43.3676 25.0645 42.313 24.0781C41.2809 23.0692 40.7648 21.7017 40.7648 19.9754V13.8214C40.7648 12.9246 40.6751 12.0951 40.4955 11.3328C40.3385 10.5482 40.1141 9.61778 39.8224 8.54167L39.7214 8.20538V8.07087ZM50.4244 8.20538V8.07087H57.7953V19.471C57.7953 20.3677 57.8738 21.2084 58.0309 21.9931C58.2104 22.7554 58.446 23.6745 58.7377 24.7507L58.8387 25.0869V25.2215H53.0833L52.9487 24.9861C52.4775 24.2462 52.1185 23.5288 51.8717 22.8338C51.8043 22.6769 51.737 22.4975 51.6697 22.2958C51.6024 21.9595 51.5463 21.6008 51.5014 21.2197C51.479 20.9506 51.4678 20.6592 51.4678 20.3453V13.8214C51.4678 12.9246 51.378 12.0951 51.1985 11.3328C51.0414 10.5482 50.8171 9.61778 50.5254 8.54167L50.4244 8.20538Z" fill="white"/>
<path d="M60.5076 0.807088L61.551 0.672573L67.9795 0V19.471C67.9795 20.3677 68.058 21.2084 68.2151 21.9931C68.3946 22.7554 68.6302 23.6745 68.9219 24.7507L69.0228 25.0869V25.2215H60.6086V25.0869L60.7095 24.7507C61.0012 23.6745 61.2256 22.7554 61.3827 21.9931C61.5622 21.2084 61.6519 20.3677 61.6519 19.471V6.42306C61.6519 5.5263 61.551 4.66317 61.349 3.83366C61.1471 2.98174 60.9115 2.12981 60.6422 1.27789C60.5749 1.07612 60.5413 0.964021 60.5413 0.941601L60.5076 0.807088ZM68.417 16.3771L72.1193 13.0479C72.9495 12.3305 73.3646 11.5682 73.3646 10.7612C73.3646 10.7387 73.3534 10.5145 73.3309 10.0886C73.3085 9.6402 73.1402 9.09093 72.8261 8.44078L72.7588 8.23901V8.07087H80.0287V8.23901L73.7348 13.7541L80.1297 25.0533V25.2215H72.8261L68.417 16.3771Z" fill="white"/>
<path d="M81.1857 20.009C81.1857 18.9105 81.4774 17.9353 82.0608 17.0833C82.6441 16.2314 83.4295 15.5813 84.4168 15.1329C85.404 14.6621 86.4586 14.4267 87.5805 14.4267C88.0517 14.4267 88.5678 14.4715 89.1288 14.5612C89.7121 14.6284 90.3068 14.7517 90.9126 14.9311C91.0921 14.9984 91.2716 15.0656 91.4511 15.1329V13.3169C91.4511 11.9269 91.4062 10.9517 91.3165 10.3912C91.2491 9.83076 91.0472 9.55052 90.7106 9.55052C90.1048 9.55052 89.0614 10.0213 87.5805 10.9629C86.1221 11.8821 84.5402 13.0031 82.8349 14.3258H82.6666V9.01247C84.2821 8.65376 85.8416 8.37352 87.3449 8.17175C88.8707 7.96998 90.1273 7.86909 91.1145 7.86909C93.4705 7.86909 95.1646 8.41836 96.1967 9.5169C97.2513 10.593 97.7786 12.0278 97.7786 13.8214V19.6055C97.7786 20.7713 97.8796 21.5111 98.0816 21.825C98.3059 22.1164 98.5527 22.2621 98.822 22.2621C99.1137 22.2621 99.4727 22.15 99.899 21.9259L100 22.0267C99.9327 23.058 99.5288 23.9099 98.7883 24.5825C98.0703 25.2327 97.0943 25.5577 95.8602 25.5577C94.469 25.5577 93.392 25.1206 92.6291 24.2462C92.2252 23.7978 91.9223 23.271 91.7204 22.6657C91.653 22.3742 91.5857 22.0716 91.5184 21.7577C91.4735 21.3766 91.4511 20.973 91.4511 20.5471V16.3099C91.3165 16.265 91.1931 16.2314 91.0809 16.209C90.8565 16.1866 90.6433 16.1754 90.4414 16.1754C89.8131 16.1754 89.297 16.2987 88.8932 16.5453C88.4893 16.7695 88.1976 17.0945 88.0181 17.5205C87.8386 17.9465 87.7488 18.4397 87.7488 19.0002C87.7488 19.9193 87.962 20.6816 88.3883 21.2869C88.8371 21.8698 89.4653 22.1613 90.2731 22.1613C90.6321 22.1613 90.9575 22.0828 91.2492 21.9259C91.3389 21.881 91.4287 21.825 91.5184 21.7577C91.7204 21.6008 91.9223 21.399 92.1242 21.1524L92.0906 21.7241C92.0233 22.0155 91.8999 22.3294 91.7204 22.6657C91.6082 22.8899 91.4623 23.1253 91.2828 23.3719C90.8341 23.9772 90.217 24.4928 89.4317 24.9188C88.6463 25.3448 87.7152 25.5577 86.6381 25.5577C85.4938 25.5577 84.5065 25.2887 83.6763 24.7507C82.8461 24.2126 82.2178 23.5176 81.7915 22.6657C81.3876 21.8138 81.1857 20.9282 81.1857 20.009Z" fill="white"/>
</svg>
