<svg width="64" height="64" viewBox="0 0 64 64" fill="none" xmlns="http://www.w3.org/2000/svg">
<path d="M50.666 18.6668H42.666V16.0002C42.666 13.1712 41.5422 10.4581 39.5418 8.45769C37.5414 6.4573 34.8283 5.3335 31.9993 5.3335C29.1704 5.3335 26.4573 6.4573 24.4569 8.45769C22.4565 10.4581 21.3327 13.1712 21.3327 16.0002V18.6668H13.3327C12.6254 18.6668 11.9472 18.9478 11.4471 19.4479C10.947 19.948 10.666 20.6263 10.666 21.3335V50.6668C10.666 52.7886 11.5089 54.8234 13.0092 56.3237C14.5095 57.824 16.5443 58.6668 18.666 58.6668H45.3327C47.4544 58.6668 49.4892 57.824 50.9895 56.3237C52.4898 54.8234 53.3327 52.7886 53.3327 50.6668V21.3335C53.3327 20.6263 53.0517 19.948 52.5516 19.4479C52.0515 18.9478 51.3733 18.6668 50.666 18.6668ZM26.666 16.0002C26.666 14.5857 27.2279 13.2291 28.2281 12.2289C29.2283 11.2287 30.5849 10.6668 31.9993 10.6668C33.4138 10.6668 34.7704 11.2287 35.7706 12.2289C36.7708 13.2291 37.3327 14.5857 37.3327 16.0002V18.6668H26.666V16.0002ZM47.9993 50.6668C47.9993 51.3741 47.7184 52.0524 47.2183 52.5525C46.7182 53.0525 46.0399 53.3335 45.3327 53.3335H18.666C17.9588 53.3335 17.2805 53.0525 16.7804 52.5525C16.2803 52.0524 15.9993 51.3741 15.9993 50.6668V24.0002H21.3327V26.6668C21.3327 27.3741 21.6136 28.0524 22.1137 28.5524C22.6138 29.0525 23.2921 29.3335 23.9993 29.3335C24.7066 29.3335 25.3849 29.0525 25.885 28.5524C26.3851 28.0524 26.666 27.3741 26.666 26.6668V24.0002H37.3327V26.6668C37.3327 27.3741 37.6136 28.0524 38.1137 28.5524C38.6138 29.0525 39.2921 29.3335 39.9993 29.3335C40.7066 29.3335 41.3849 29.0525 41.885 28.5524C42.3851 28.0524 42.666 27.3741 42.666 26.6668V24.0002H47.9993V50.6668Z" fill="black"/>
</svg>
