<svg width="81" height="29" viewBox="0 0 81 29" fill="none" xmlns="http://www.w3.org/2000/svg">
<path d="M0 14.5C0 6.49187 6.49187 0 14.5 0H66.5C74.5081 0 81 6.49187 81 14.5C81 22.5081 74.5081 29 66.5 29H14.5C6.49187 29 0 22.5081 0 14.5Z" fill="#55C790"/>
<path d="M16.688 20H18.018V15.408H23.128V14.246H18.018V10.732H23.492V9.57H16.688V20ZM29.2374 12.58V17.074C29.2374 18.236 28.4954 19.006 27.4034 19.006C26.2834 19.006 25.5554 18.25 25.5554 17.074V12.58H24.3514V17.298C24.3514 18.88 25.5274 20.168 27.1374 20.168C28.0334 20.168 28.8314 19.79 29.2654 19.146V20H30.4414V12.58H29.2374ZM32.2844 20H33.4884V9.57H32.2844V20ZM36.0752 20H37.2792V13.728H39.0432V12.58H37.2792V11.908C37.2792 10.998 37.8392 10.536 38.6512 10.536C38.7772 10.536 39.0852 10.55 39.2392 10.578V9.514C39.0712 9.472 38.7352 9.444 38.5112 9.444C37.1672 9.444 36.0752 10.312 36.0752 11.908V12.58H34.6332V13.728H36.0752V20ZM40.3032 11.208H41.5072V9.57H40.3032V11.208ZM40.3032 20H41.5072V12.58H40.3032V20ZM43.2492 20H44.4532V9.57H43.2492V20ZM46.298 20H47.502V9.57H46.298V20ZM55.9969 15.968C55.9969 14.078 54.6529 12.412 52.5389 12.412C50.4669 12.412 48.9269 14.036 48.9269 16.276C48.9269 18.516 50.5089 20.168 52.6369 20.168C54.1629 20.168 55.3669 19.342 55.8289 18.32L54.7789 17.76C54.3869 18.516 53.7009 19.076 52.6509 19.076C51.3489 19.076 50.2429 18.124 50.1869 16.654H55.9409C55.9829 16.416 55.9969 16.178 55.9969 15.968ZM50.2149 15.618C50.3829 14.274 51.3769 13.476 52.5389 13.476C53.6309 13.476 54.6529 14.386 54.6669 15.618H50.2149ZM63.2542 9.57V13.672C62.7222 12.888 61.7282 12.412 60.6082 12.412C58.5222 12.412 56.8702 14.05 56.8702 16.29C56.8702 18.53 58.5082 20.168 60.6222 20.168C61.7422 20.168 62.7362 19.72 63.2822 18.922V20H64.4582V9.57H63.2542ZM60.6922 19.006C59.2222 19.006 58.1442 17.858 58.1442 16.29C58.1442 14.736 59.2222 13.574 60.6922 13.574C62.1622 13.574 63.2542 14.736 63.2542 16.29C63.2542 17.858 62.1622 19.006 60.6922 19.006Z" fill="#111827"/>
</svg>
