<svg width="13" height="22" viewBox="0 0 13 22" fill="none" xmlns="http://www.w3.org/2000/svg">
<path d="M9.92217 7.34775C9.68857 7.43282 9.43147 7.42285 9.20499 7.31995C8.97851 7.21705 8.80029 7.02924 8.70786 6.79606L7.79808 4.34958C7.53803 3.68147 7.02853 3.14385 6.37979 2.85304C5.73106 2.56223 4.99528 2.54162 4.33164 2.79567C3.66801 3.04973 3.1299 3.55801 2.83374 4.21054C2.53758 4.86307 2.50719 5.60738 2.74915 6.28241L4.00856 9.64964C4.02883 9.70517 4.04394 9.76249 4.05368 9.82086H2.06117L0.989729 6.95586C0.584222 5.81204 0.638873 4.55278 1.14191 3.44935C1.64495 2.34591 2.55612 1.4866 3.67914 1.05653C4.80217 0.626446 6.04718 0.66001 7.14599 1.14999C8.24479 1.63998 9.10946 2.54716 9.55374 3.67614L10.4673 6.11881C10.5114 6.23571 10.5323 6.36027 10.5288 6.48536C10.5252 6.61045 10.4974 6.7336 10.4467 6.84777C10.3961 6.96193 10.3237 7.06486 10.2337 7.15066C10.1437 7.23645 10.0378 7.30343 9.92217 7.34775Z" fill="#5333EE"/>
<path d="M12.8595 9.84369H0.509766V21.3912H12.8595V9.84369Z" fill="url(#paint0_linear_1793_3107)"/>
<path d="M12.8441 9.82089H5.09961V21.3684H12.8441V9.82089Z" fill="url(#paint1_linear_1793_3107)"/>
<path d="M6.39026 15.2313C6.39026 15.2313 5.1722 14.204 6.23612 13.3289C7.30004 12.4538 8.49179 14.2801 7.36395 15.2313L8.1572 17.3733H5.48047L6.39026 15.2313Z" fill="white"/>
<defs>
<linearGradient id="paint0_linear_1793_3107" x1="23.9762" y1="4.5969" x2="-10.9396" y2="26.3252" gradientUnits="userSpaceOnUse">
<stop stop-color="#0CAF60" stop-opacity="0"/>
<stop offset="0.99" stop-color="#0CAF60"/>
</linearGradient>
<linearGradient id="paint1_linear_1793_3107" x1="22.1863" y1="7.17277" x2="-4.4973" y2="23.7775" gradientUnits="userSpaceOnUse">
<stop stop-color="#0CAF60" stop-opacity="0"/>
<stop offset="0.99" stop-color="#0CAF60"/>
</linearGradient>
</defs>
</svg>
