<svg width="24" height="24" viewBox="0 0 24 24" fill="none" xmlns="http://www.w3.org/2000/svg">
<path d="M14.25 5.25V16.5C14.25 16.6989 14.171 16.8897 14.0303 17.0303C13.8897 17.171 13.6989 17.25 13.5 17.25C13.3011 17.25 13.1103 17.171 12.9697 17.0303C12.829 16.8897 12.75 16.6989 12.75 16.5V11.625H4.5V16.5C4.5 16.6989 4.42098 16.8897 4.28033 17.0303C4.13968 17.171 3.94891 17.25 3.75 17.25C3.55109 17.25 3.36032 17.171 3.21967 17.0303C3.07902 16.8897 3 16.6989 3 16.5V5.25C3 5.05109 3.07902 4.86032 3.21967 4.71967C3.36032 4.57902 3.55109 4.5 3.75 4.5C3.94891 4.5 4.13968 4.57902 4.28033 4.71967C4.42098 4.86032 4.5 5.05109 4.5 5.25V10.125H12.75V5.25C12.75 5.05109 12.829 4.86032 12.9697 4.71967C13.1103 4.57902 13.3011 4.5 13.5 4.5C13.6989 4.5 13.8897 4.57902 14.0303 4.71967C14.171 4.86032 14.25 5.05109 14.25 5.25ZM20.9813 9.45938C20.8609 9.39843 20.7267 9.36985 20.5919 9.37642C20.4571 9.383 20.3264 9.42451 20.2125 9.49688L17.9625 10.9969C17.7959 11.1063 17.6796 11.2774 17.6392 11.4725C17.5987 11.6677 17.6375 11.8709 17.7469 12.0375C17.8563 12.2041 18.0274 12.3204 18.2225 12.3608C18.4177 12.4013 18.6209 12.3625 18.7875 12.2531L19.875 11.5219V18.75C19.875 18.9489 19.954 19.1397 20.0947 19.2803C20.2353 19.421 20.4261 19.5 20.625 19.5C20.8239 19.5 21.0147 19.421 21.1553 19.2803C21.296 19.1397 21.375 18.9489 21.375 18.75V10.125C21.376 9.98875 21.3399 9.85479 21.2705 9.73752C21.2012 9.62025 21.1012 9.52409 20.9813 9.45938Z" fill="black"/>
</svg>
