<svg width="24" height="24" viewBox="0 0 24 24" fill="none" xmlns="http://www.w3.org/2000/svg">
<path d="M14.25 5.25V16.5C14.25 16.6989 14.171 16.8897 14.0303 17.0303C13.8897 17.171 13.6989 17.25 13.5 17.25C13.3011 17.25 13.1103 17.171 12.9697 17.0303C12.829 16.8897 12.75 16.6989 12.75 16.5V11.625H4.5V16.5C4.5 16.6989 4.42098 16.8897 4.28033 17.0303C4.13968 17.171 3.94891 17.25 3.75 17.25C3.55109 17.25 3.36032 17.171 3.21967 17.0303C3.07902 16.8897 3 16.6989 3 16.5V5.25C3 5.05109 3.07902 4.86032 3.21967 4.71967C3.36032 4.57902 3.55109 4.5 3.75 4.5C3.94891 4.5 4.13968 4.57902 4.28033 4.71967C4.42098 4.86032 4.5 5.05109 4.5 5.25V10.125H12.75V5.25C12.75 5.05109 12.829 4.86032 12.9697 4.71967C13.1103 4.57902 13.3011 4.5 13.5 4.5C13.6989 4.5 13.8897 4.57902 14.0303 4.71967C14.171 4.86032 14.25 5.05109 14.25 5.25ZM22.5 18H19.5L22.7156 13.7062L22.7344 13.6781C23.0708 13.1832 23.2505 12.5984 23.25 12C23.2522 11.3065 23.014 10.6336 22.576 10.0959C22.138 9.55815 21.5272 9.1888 20.8476 9.05066C20.1679 8.91252 19.4614 9.01413 18.8482 9.3382C18.2351 9.66226 17.7531 10.1888 17.4844 10.8281C17.4061 11.0121 17.404 11.2197 17.4788 11.4052C17.5535 11.5907 17.6988 11.7389 17.8828 11.8172C18.0668 11.8955 18.2744 11.8975 18.4599 11.8228C18.6453 11.7481 18.7936 11.6027 18.8719 11.4188C18.985 11.1465 19.1763 10.9139 19.4216 10.7503C19.6669 10.5868 19.9552 10.4997 20.25 10.5C20.5211 10.4994 20.7873 10.5722 21.0203 10.7108C21.2532 10.8493 21.4443 11.0485 21.5732 11.2869C21.702 11.5254 21.7639 11.7944 21.7521 12.0652C21.7403 12.336 21.6553 12.5986 21.5063 12.825L17.4094 18.2906C17.3033 18.4199 17.2468 18.5828 17.25 18.75C17.25 18.9079 17.2998 19.0618 17.3924 19.1898C17.485 19.3177 17.6156 19.4131 17.7656 19.4625C17.841 19.4886 17.9203 19.5012 18 19.5H22.5C22.6989 19.5 22.8897 19.421 23.0303 19.2803C23.171 19.1397 23.25 18.9489 23.25 18.75C23.25 18.5511 23.171 18.3603 23.0303 18.2197C22.8897 18.079 22.6989 18 22.5 18Z" fill="black"/>
</svg>
