<svg width="20" height="20" viewBox="0 0 20 20" fill="none" xmlns="http://www.w3.org/2000/svg">
<path d="M17.6015 6.46085C17.6019 6.99525 17.4965 7.52445 17.2914 8.01791C17.0862 8.51136 16.7854 8.95929 16.4062 9.33585L14.1952 11.5468C13.4335 12.3077 12.4008 12.7351 11.3241 12.7351C10.2474 12.7351 9.21479 12.3077 8.45304 11.5468C8.3903 11.4899 8.33977 11.4209 8.3045 11.344C8.26923 11.267 8.24997 11.1837 8.24789 11.099C8.24581 11.0144 8.26094 10.9302 8.29238 10.8516C8.32381 10.773 8.37089 10.7016 8.43076 10.6417C8.49063 10.5818 8.56203 10.5347 8.64065 10.5033C8.71926 10.4719 8.80344 10.4567 8.88808 10.4588C8.97272 10.4609 9.05606 10.4802 9.13303 10.5154C9.21 10.5507 9.27901 10.6012 9.33586 10.664C9.86427 11.1892 10.5791 11.4841 11.3241 11.4841C12.0692 11.4841 12.784 11.1892 13.3124 10.664L15.5234 8.45304C15.7937 8.19402 16.0096 7.88363 16.1585 7.54006C16.3073 7.1965 16.386 6.82667 16.39 6.45228C16.394 6.07789 16.3233 5.70646 16.1818 5.35978C16.0404 5.01311 15.8312 4.69816 15.5664 4.43341C15.3017 4.16866 14.9867 3.95943 14.64 3.81801C14.2934 3.67658 13.9219 3.6058 13.5476 3.60981C13.1732 3.61382 12.8033 3.69254 12.4598 3.84137C12.1162 3.99019 11.8058 4.20611 11.5468 4.47648L9.99992 6.02335C9.88103 6.13108 9.72527 6.18896 9.56488 6.18501C9.40449 6.18106 9.25176 6.11558 9.13832 6.00214C9.02487 5.88869 8.9594 5.73597 8.95545 5.57558C8.9515 5.41519 9.00938 5.25943 9.11711 5.14054L10.664 3.59366C11.2331 3.02881 11.9564 2.64464 12.7431 2.48938C13.5298 2.33412 14.3448 2.41469 15.0859 2.72096C15.827 3.02723 16.4611 3.54558 16.9086 4.21093C17.3561 4.87628 17.5972 5.659 17.6015 6.46085ZM9.99992 13.9765L8.45304 15.5234C7.92195 16.0322 7.21268 16.3127 6.47724 16.3048C5.7418 16.2969 5.0387 16.0013 4.51864 15.4812C3.99857 14.9611 3.70292 14.258 3.69504 13.5226C3.68716 12.7871 3.96768 12.0779 4.47648 11.5468L6.68742 9.33585C7.21584 8.81059 7.93063 8.51576 8.6757 8.51576C9.42077 8.51576 10.1356 8.81059 10.664 9.33585C10.7829 9.44358 10.9386 9.50146 11.099 9.49751C11.2594 9.49356 11.4121 9.42808 11.5256 9.31464C11.639 9.20119 11.7045 9.04847 11.7084 8.88808C11.7124 8.72769 11.6545 8.57193 11.5468 8.45304C10.7851 7.69211 9.75239 7.26469 8.6757 7.26469C7.59901 7.26469 6.56635 7.69211 5.80461 8.45304L3.59367 10.664C3.19619 11.0363 2.87765 11.4848 2.65698 11.9828C2.43631 12.4807 2.31801 13.0179 2.30913 13.5625C2.30025 14.1071 2.40097 14.6479 2.60528 15.1527C2.8096 15.6576 3.11335 16.1162 3.49847 16.5014C3.8836 16.8865 4.34223 17.1902 4.8471 17.3945C5.35196 17.5989 5.89276 17.6996 6.43734 17.6907C6.98191 17.6818 7.51914 17.5635 8.01708 17.3429C8.51501 17.1222 8.9635 16.8036 9.33586 16.4062L10.8827 14.8593C10.9905 14.7404 11.0483 14.5846 11.0444 14.4242C11.0404 14.2639 10.975 14.1111 10.8615 13.9977C10.7481 13.8842 10.5953 13.8188 10.435 13.8148C10.2746 13.8109 10.1188 13.8688 9.99992 13.9765Z" fill="black"/>
</svg>
