<svg width="24" height="24" viewBox="0 0 24 24" fill="none" xmlns="http://www.w3.org/2000/svg">
<path d="M21 12C21 12.1989 20.921 12.3897 20.7803 12.5303C20.6397 12.671 20.4489 12.75 20.25 12.75H16.4906C17.3531 13.4156 18 14.3625 18 15.75C18 17.1375 17.3438 18.1594 16.1437 19.0125C14.9437 19.8656 13.5562 20.25 12 20.25C10.4437 20.25 8.97188 19.8094 7.85625 19.0125C6.74063 18.2156 6 16.9969 6 15.75C6 15.5511 6.07902 15.3603 6.21967 15.2197C6.36032 15.079 6.55109 15 6.75 15C6.94891 15 7.13968 15.079 7.28033 15.2197C7.42098 15.3603 7.5 15.5511 7.5 15.75C7.5 17.3719 9.5625 18.75 12 18.75C14.4375 18.75 16.5 17.3719 16.5 15.75C16.5 14.3531 15.5156 13.5375 12.8625 12.75H3.75C3.55109 12.75 3.36032 12.671 3.21967 12.5303C3.07902 12.3897 3 12.1989 3 12C3 11.8011 3.07902 11.6103 3.21967 11.4697C3.36032 11.329 3.55109 11.25 3.75 11.25H20.25C20.4489 11.25 20.6397 11.329 20.7803 11.4697C20.921 11.6103 21 11.8011 21 12ZM7.15313 9.75C7.23289 9.75206 7.31236 9.73935 7.3875 9.7125C7.48107 9.68173 7.56766 9.63283 7.64233 9.56858C7.717 9.50434 7.77829 9.42602 7.82269 9.3381C7.86709 9.25017 7.89373 9.15436 7.9011 9.05613C7.90847 8.95791 7.89641 8.85919 7.86563 8.76562C7.81575 8.5983 7.79048 8.4246 7.79062 8.25C7.79063 6.54375 9.6 5.25 12 5.25C13.8281 5.25 15.3844 6.02813 15.9656 7.21875C16.0544 7.39613 16.2091 7.53172 16.3965 7.59655C16.584 7.66137 16.7894 7.65027 16.9688 7.56562C17.0583 7.52357 17.1385 7.464 17.2047 7.39043C17.2708 7.31686 17.3216 7.23078 17.3539 7.13727C17.3862 7.04377 17.3995 6.94473 17.3929 6.84601C17.3864 6.74729 17.3601 6.65089 17.3156 6.5625C16.4719 4.82812 14.4375 3.75 12 3.75C8.74687 3.75 6.29062 5.68125 6.29062 8.25C6.29168 8.58374 6.34223 8.91547 6.44062 9.23438C6.48998 9.38439 6.58542 9.515 6.71336 9.60759C6.8413 9.70017 6.9952 9.75001 7.15313 9.75Z" fill="black"/>
</svg>
