<svg width="18" height="17" viewBox="0 0 18 17" fill="none" xmlns="http://www.w3.org/2000/svg">
<path d="M9.49163 9.33338L7.57496 11.2417C7.49685 11.3192 7.43486 11.4113 7.39255 11.5129C7.35024 11.6144 7.32846 11.7234 7.32846 11.8334C7.32846 11.9434 7.35024 12.0523 7.39255 12.1539C7.43486 12.2554 7.49685 12.3476 7.57496 12.425C7.65243 12.5031 7.7446 12.5651 7.84615 12.6075C7.94769 12.6498 8.05662 12.6715 8.16663 12.6715C8.27664 12.6715 8.38556 12.6498 8.48711 12.6075C8.58866 12.5651 8.68082 12.5031 8.75829 12.425L12.0916 9.09171C12.1675 9.01246 12.227 8.919 12.2666 8.81671C12.35 8.61383 12.35 8.38626 12.2666 8.18338C12.227 8.08108 12.1675 7.98763 12.0916 7.90838L8.75829 4.57504C8.68059 4.49734 8.58835 4.43571 8.48683 4.39366C8.38532 4.35161 8.27651 4.32997 8.16663 4.32997C8.05674 4.32997 7.94794 4.35161 7.84642 4.39366C7.7449 4.43571 7.65266 4.49734 7.57496 4.57504C7.49726 4.65274 7.43563 4.74498 7.39358 4.8465C7.35153 4.94802 7.32988 5.05683 7.32988 5.16671C7.32988 5.27659 7.35153 5.3854 7.39358 5.48692C7.43563 5.58844 7.49726 5.68068 7.57496 5.75838L9.49163 7.66671H1.49996C1.27895 7.66671 1.06698 7.75451 0.910704 7.91079C0.754423 8.06707 0.666626 8.27903 0.666626 8.50004C0.666626 8.72106 0.754423 8.93302 0.910704 9.0893C1.06698 9.24558 1.27895 9.33338 1.49996 9.33338H9.49163ZM8.99996 0.166709C7.44254 0.159756 5.91433 0.589386 4.58868 1.40687C3.26304 2.22435 2.193 3.39697 1.49996 4.79171C1.4005 4.99062 1.38414 5.2209 1.45446 5.43187C1.52479 5.64285 1.67605 5.81725 1.87496 5.91671C2.07387 6.01617 2.30415 6.03253 2.51512 5.9622C2.7261 5.89188 2.9005 5.74062 2.99996 5.54171C3.52678 4.47781 4.32815 3.57389 5.32125 2.92337C6.31435 2.27284 7.46314 1.89931 8.64892 1.84137C9.8347 1.78343 11.0144 2.04319 12.0662 2.5938C13.118 3.14441 14.0037 3.9659 14.6317 4.97337C15.2598 5.98084 15.6074 7.13775 15.6386 8.32453C15.6699 9.51131 15.3837 10.6849 14.8096 11.7241C14.2354 12.7632 13.3942 13.6302 12.3729 14.2354C11.3516 14.8406 10.1871 15.1621 8.99996 15.1667C7.75736 15.1721 6.53842 14.827 5.48304 14.1711C4.42765 13.5152 3.57859 12.5749 3.03329 11.4584C2.93384 11.2595 2.75944 11.1082 2.54846 11.0379C2.33748 10.9676 2.10721 10.9839 1.90829 11.0834C1.70938 11.1828 1.55812 11.3572 1.4878 11.5682C1.41747 11.7792 1.43384 12.0095 1.53329 12.2084C2.19398 13.538 3.19789 14.6669 4.44118 15.4784C5.68448 16.2899 7.122 16.7545 8.60506 16.8242C10.0881 16.8939 11.5629 16.566 12.8767 15.8746C14.1906 15.1832 15.2959 14.1534 16.0783 12.8916C16.8608 11.6298 17.2919 10.1818 17.327 8.69755C17.3622 7.21327 17.0002 5.74654 16.2785 4.44907C15.5568 3.1516 14.5015 2.07051 13.2218 1.31763C11.9422 0.564746 10.4847 0.167406 8.99996 0.166709Z" fill="#A0AEC0"/>
</svg>
