<svg width="63" height="19" viewBox="0 0 63 19" fill="none" xmlns="http://www.w3.org/2000/svg">
<path d="M14.494 0.545454V18H12.0735L3.20135 5.19886H3.03942V18H0.405895V0.545454H2.8434L11.7241 13.3636H11.886V0.545454H14.494ZM23.6452 18.2642C22.418 18.2642 21.3469 17.983 20.4322 17.4205C19.5174 16.858 18.8072 16.071 18.3015 15.0597C17.7958 14.0483 17.543 12.8665 17.543 11.5142C17.543 10.1562 17.7958 8.96875 18.3015 7.9517C18.8072 6.93466 19.5174 6.14489 20.4322 5.58239C21.3469 5.01989 22.418 4.73864 23.6452 4.73864C24.8725 4.73864 25.9435 5.01989 26.8583 5.58239C27.7731 6.14489 28.4833 6.93466 28.989 7.9517C29.4947 8.96875 29.7475 10.1562 29.7475 11.5142C29.7475 12.8665 29.4947 14.0483 28.989 15.0597C28.4833 16.071 27.7731 16.858 26.8583 17.4205C25.9435 17.983 24.8725 18.2642 23.6452 18.2642ZM23.6538 16.125C24.4492 16.125 25.1083 15.9148 25.631 15.4943C26.1538 15.0739 26.5401 14.5142 26.7901 13.8153C27.0458 13.1165 27.1737 12.3466 27.1737 11.5057C27.1737 10.6705 27.0458 9.90341 26.7901 9.20455C26.5401 8.5 26.1538 7.93466 25.631 7.50852C25.1083 7.08239 24.4492 6.86932 23.6538 6.86932C22.8526 6.86932 22.1879 7.08239 21.6594 7.50852C21.1367 7.93466 20.7475 8.5 20.4918 9.20455C20.2418 9.90341 20.1168 10.6705 20.1168 11.5057C20.1168 12.3466 20.2418 13.1165 20.4918 13.8153C20.7475 14.5142 21.1367 15.0739 21.6594 15.4943C22.1879 15.9148 22.8526 16.125 23.6538 16.125ZM32.592 18V4.90909H35.055V6.98864H35.1914C35.43 6.28409 35.8505 5.73011 36.4528 5.3267C37.0607 4.91761 37.7482 4.71307 38.5153 4.71307C38.6744 4.71307 38.8619 4.71875 39.0778 4.73011C39.2994 4.74148 39.4727 4.75568 39.5977 4.77273V7.21023C39.4954 7.18182 39.3136 7.15057 39.0522 7.11648C38.7908 7.0767 38.5295 7.05682 38.2681 7.05682C37.6658 7.05682 37.1289 7.18466 36.6573 7.44034C36.1914 7.69034 35.8221 8.03977 35.5494 8.48864C35.2766 8.93182 35.1403 9.4375 35.1403 10.0057V18H32.592ZM48.6871 4.90909V6.95455H41.5366V4.90909H48.6871ZM43.4542 1.77273H46.0025V14.1562C46.0025 14.6506 46.0763 15.0227 46.2241 15.2727C46.3718 15.517 46.5621 15.6847 46.7951 15.7756C47.0337 15.8608 47.2923 15.9034 47.5707 15.9034C47.7752 15.9034 47.9542 15.8892 48.1076 15.8608C48.261 15.8324 48.3803 15.8097 48.4656 15.7926L48.9258 17.8977C48.7781 17.9545 48.5678 18.0114 48.2951 18.0682C48.0224 18.1307 47.6815 18.1648 47.2724 18.1705C46.6019 18.1818 45.9769 18.0625 45.3974 17.8125C44.8178 17.5625 44.3491 17.1761 43.9911 16.6534C43.6332 16.1307 43.4542 15.4744 43.4542 14.6847V1.77273ZM54.3356 10.2273V18H51.7873V0.545454H54.3015V7.03977H54.4634C54.7702 6.33523 55.239 5.77557 55.8697 5.36079C56.5004 4.94602 57.3242 4.73864 58.3413 4.73864C59.239 4.73864 60.0231 4.9233 60.6935 5.29261C61.3697 5.66193 61.8924 6.21307 62.2617 6.94602C62.6367 7.6733 62.8242 8.58239 62.8242 9.6733V18H60.2759V9.98011C60.2759 9.01989 60.0288 8.27557 59.5344 7.74716C59.0401 7.21307 58.3526 6.94602 57.4719 6.94602C56.8697 6.94602 56.3299 7.07386 55.8526 7.32955C55.381 7.58523 55.0089 7.96023 54.7362 8.45455C54.4691 8.94318 54.3356 9.53409 54.3356 10.2273Z" fill="black"/>
</svg>
