<svg width="18" height="18" viewBox="0 0 18 18" fill="none" xmlns="http://www.w3.org/2000/svg">
<path d="M15.4535 12.3757H4.90557C4.49715 12.3757 4.08693 12.0482 4.08693 11.6398L3.35285 2.23705H0V0.601562H4.08783C4.49715 0.601562 4.90647 0.929021 4.90647 1.33744L4.98744 2.48175H17.0872C17.3337 2.48175 17.5793 2.56271 17.7439 2.80921C17.9058 2.97293 17.9868 3.21763 17.9058 3.46322L16.2712 11.7216C16.1903 12.131 15.8619 12.3766 15.4526 12.3766L15.4535 12.3757ZM5.64055 10.7402H14.7176L16.0257 4.11724H5.0684L5.64055 10.7402ZM5.72332 17.6807C6.15684 17.6809 6.5727 17.5089 6.87941 17.2025C7.18613 16.8962 7.35857 16.4805 7.35881 16.047C7.35905 15.6134 7.18706 15.1976 6.88068 14.8909C6.57431 14.5842 6.15864 14.4117 5.72512 14.4115C5.2916 14.4112 4.87574 14.5832 4.56902 14.8896C4.26231 15.196 4.08987 15.6116 4.08963 16.0452C4.08939 16.4787 4.26137 16.8945 4.56775 17.2013C4.87413 17.508 5.2898 17.6804 5.72332 17.6807ZM13.9817 17.6807C14.1965 17.6806 14.4091 17.6383 14.6074 17.556C14.8058 17.4738 14.986 17.3533 15.1378 17.2014C15.2895 17.0496 15.4099 16.8693 15.492 16.6709C15.5742 16.4725 15.6164 16.2599 15.6163 16.0452C15.6163 15.8305 15.5739 15.6178 15.4917 15.4195C15.4095 15.2211 15.289 15.0409 15.1371 14.8892C14.9852 14.7374 14.805 14.617 14.6066 14.5349C14.4082 14.4527 14.1956 14.4105 13.9808 14.4106C13.5538 14.4206 13.1477 14.5973 12.8492 14.9028C12.5508 15.2083 12.3837 15.6185 12.3837 16.0456C12.3837 16.4727 12.5508 16.8829 12.8492 17.1884C13.1477 17.494 13.5547 17.6706 13.9817 17.6807Z" fill="#292929"/>
</svg>
