<svg width="6" height="9" viewBox="0 0 6 9" fill="none" xmlns="http://www.w3.org/2000/svg">
<path d="M5.36003 4.02661L1.5867 0.259943C1.52472 0.197457 1.45099 0.147861 1.36975 0.114016C1.28851 0.0801698 1.20137 0.0627441 1.11336 0.0627441C1.02535 0.0627441 0.938217 0.0801698 0.856977 0.114016C0.775738 0.147861 0.702004 0.197457 0.640029 0.259943C0.515861 0.384851 0.446167 0.553819 0.446167 0.729943C0.446167 0.906067 0.515861 1.07503 0.640029 1.19994L3.94003 4.53328L0.640029 7.83328C0.515861 7.95818 0.446167 8.12715 0.446167 8.30328C0.446167 8.4794 0.515861 8.64837 0.640029 8.77328C0.701772 8.83627 0.775402 8.88638 0.856652 8.92071C0.937902 8.95504 1.02516 8.97291 1.11336 8.97328C1.20157 8.97291 1.28882 8.95504 1.37007 8.92071C1.45132 8.88638 1.52495 8.83627 1.5867 8.77328L5.36003 5.00661C5.4277 4.94418 5.4817 4.86841 5.51864 4.78408C5.55558 4.69975 5.57465 4.60868 5.57465 4.51661C5.57465 4.42454 5.55558 4.33347 5.51864 4.24914C5.4817 4.16481 5.4277 4.08904 5.36003 4.02661Z" fill="#111827"/>
</svg>
