<svg width="18" height="17" viewBox="0 0 18 17" fill="none" xmlns="http://www.w3.org/2000/svg">
<path d="M17.3334 7.70829C17.3334 7.61663 17.3334 7.52496 17.3334 7.43329L17.2584 6.93329L17.1834 6.60829C17.1834 6.46663 17.1167 6.32496 17.0751 6.18329C17.0334 6.04163 17.0084 5.95829 16.9667 5.84996C16.9435 5.78447 16.924 5.71769 16.9084 5.64996C16.9084 5.64996 16.9084 5.64996 16.9084 5.60829C16.4864 4.48581 15.8295 3.46646 14.9815 2.61851C14.1336 1.77056 13.1142 1.1136 11.9917 0.691626C11.9917 0.691626 11.9917 0.691626 11.9501 0.691626L11.7584 0.633293L11.4084 0.524959C11.2834 0.524959 11.1501 0.458293 11.0251 0.424959L10.6417 0.341626L10.2584 0.283293C10.1251 0.283293 10.0001 0.283293 9.85839 0.233293C9.71672 0.183293 9.56672 0.233293 9.42506 0.233293L9.00006 0.166626H8.67506C8.53339 0.166626 8.38339 0.166626 8.24172 0.166626C8.10006 0.166626 7.97506 0.166626 7.84172 0.216626L7.45839 0.274959L7.07506 0.358293C6.95006 0.358293 6.81672 0.416626 6.69172 0.458293L6.34172 0.566626L6.15006 0.624959C6.15006 0.624959 6.15006 0.624959 6.10839 0.624959C4.98591 1.04693 3.96655 1.70389 3.11861 2.55184C2.27066 3.39979 1.6137 4.41914 1.19172 5.54163C1.19172 5.54163 1.19172 5.54163 1.19172 5.58329C1.17614 5.65103 1.15666 5.7178 1.13339 5.78329C1.13339 5.89163 1.05839 5.99996 1.02506 6.11663C0.991724 6.23329 0.950057 6.39996 0.916724 6.54163L0.841724 6.86663L0.766724 7.36663C0.766724 7.45829 0.766724 7.54996 0.766724 7.64163C0.766724 7.89996 0.766724 8.16663 0.766724 8.43329C0.766724 8.69996 0.766724 8.96663 0.766724 9.22496C0.766724 9.31663 0.766724 9.40829 0.766724 9.49996L0.841724 9.99996L0.916724 10.325C0.916724 10.4666 0.98339 10.6083 1.02506 10.75C1.06672 10.8916 1.09172 10.975 1.13339 11.0833C1.15666 11.1488 1.17614 11.2156 1.19172 11.2833C1.19331 11.3027 1.19331 11.3222 1.19172 11.3416C1.61003 12.4629 2.26494 13.481 3.11191 14.3265C3.95889 15.172 4.97805 15.8252 6.10006 16.2416C6.10006 16.2416 6.10006 16.2416 6.14172 16.2416L6.34172 16.3L6.67506 16.4083L7.10006 16.5166L7.42506 16.5916L7.92506 16.6666H8.20006C8.45839 16.6666 8.72506 16.7083 8.99172 16.7083C9.25839 16.7083 9.52506 16.7083 9.78339 16.6666H10.0584L10.5584 16.5916L10.8834 16.5166L11.3084 16.4083L11.6417 16.3L11.8417 16.2416C11.8417 16.2416 11.8417 16.2416 11.8834 16.2416C13.0054 15.8252 14.0246 15.172 14.8715 14.3265C15.7185 13.481 16.3734 12.4629 16.7917 11.3416C16.7901 11.3222 16.7901 11.3027 16.7917 11.2833C16.7917 11.2166 16.8334 11.15 16.8501 11.0833C16.8667 11.0166 16.9251 10.8666 16.9584 10.75C16.9917 10.6333 17.0334 10.4666 17.0667 10.325L17.1417 9.99996L17.2167 9.49996C17.2167 9.40829 17.2167 9.31663 17.2167 9.22496C17.2167 8.96663 17.2584 8.69996 17.2584 8.43329C17.2584 8.16663 17.3334 7.96663 17.3334 7.70829ZM12.0834 2.57496C13.3221 3.21134 14.3303 4.21963 14.9667 5.45829L12.5834 6.29163C12.2379 5.7379 11.7705 5.27044 11.2167 4.92496L12.0834 2.57496ZM7.61672 1.99163C7.79172 1.94996 7.95839 1.92496 8.12506 1.89996H8.32506C8.80153 1.84996 9.28192 1.84996 9.75839 1.89996H9.95839C10.1251 1.89996 10.2917 1.94996 10.4667 1.99163H10.5167L9.68339 4.37496C9.45736 4.34022 9.22863 4.32627 9.00006 4.33329C8.79624 4.33302 8.59276 4.34975 8.39172 4.38329L7.55839 1.99996L7.61672 1.99163ZM6.00006 2.57496L6.83339 4.95829C6.27663 5.30278 5.80625 5.77031 5.45839 6.32496L3.07506 5.49163C3.70581 4.24058 4.71468 3.22005 5.95839 2.57496H6.00006ZM2.49172 9.92496C2.45181 9.76054 2.42396 9.59343 2.40839 9.42496C2.40839 9.34996 2.40839 9.28329 2.40839 9.21663C2.35283 8.74046 2.35283 8.25946 2.40839 7.78329C2.40839 7.71663 2.40839 7.64996 2.40839 7.57496C2.42396 7.40649 2.45181 7.23938 2.49172 7.07496C2.49172 7.07496 2.49172 7.07496 2.49172 7.02496L4.87506 7.85829C4.80838 8.26111 4.80838 8.67214 4.87506 9.07496L2.49172 9.90829C2.49172 9.90829 2.49172 9.94163 2.49172 9.92496ZM5.95839 14.425C4.71972 13.7886 3.71143 12.7803 3.07506 11.5416L5.45839 10.7083C5.80387 11.262 6.27133 11.7295 6.82506 12.075L5.95839 14.425ZM10.4251 15.0083C10.2501 15.05 10.0834 15.075 9.91672 15.1H9.71672C9.24025 15.15 8.75986 15.15 8.28339 15.1H8.08339C7.91672 15.1 7.75006 15.05 7.57506 15.0083H7.52506L8.35839 12.625C8.7612 12.6916 9.17224 12.6916 9.57506 12.625L10.4084 15.0083H10.4251ZM9.86672 10.8416C9.72506 10.8916 9.58339 10.925 9.45006 10.9583C9.17465 11.0096 8.89213 11.0096 8.61672 10.9583C8.48339 10.9583 8.34172 10.8916 8.20006 10.8416C7.84833 10.7202 7.52816 10.5217 7.26289 10.2608C6.99762 9.99984 6.79394 9.68297 6.66672 9.33329C6.61628 9.19505 6.57726 9.05291 6.55006 8.90829C6.49676 8.63307 6.49676 8.35018 6.55006 8.07496C6.57541 7.93622 6.61164 7.79969 6.65839 7.66663C6.78403 7.32107 6.98434 7.00747 7.24506 6.7482C7.50577 6.48892 7.82047 6.29035 8.16672 6.16663C8.30839 6.11663 8.45006 6.08329 8.58339 6.04996C8.8588 5.99865 9.14132 5.99865 9.41672 6.04996C9.55006 6.04996 9.69172 6.11663 9.83339 6.16663C10.1781 6.29138 10.4912 6.49042 10.7504 6.74964C11.0096 7.00886 11.2086 7.32192 11.3334 7.66663C11.3838 7.80487 11.4229 7.94701 11.4501 8.09163C11.5034 8.36685 11.5034 8.64974 11.4501 8.92496C11.4229 9.06958 11.3838 9.21172 11.3334 9.34996C11.2066 9.69159 11.0066 10.0014 10.7475 10.2576C10.4884 10.5138 10.1764 10.7103 9.83339 10.8333L9.86672 10.8416ZM12.0417 14.4333L11.2084 12.05C11.7621 11.7045 12.2296 11.237 12.5751 10.6833L14.9584 11.5166C14.3175 12.7696 13.2966 13.7877 12.0417 14.425V14.4333ZM15.6667 9.21663C15.6667 9.28329 15.6667 9.34996 15.6667 9.42496C15.6512 9.59343 15.6233 9.76054 15.5834 9.92496C15.5834 9.92496 15.5834 9.92496 15.5834 9.97496L13.2001 9.14163C13.2667 8.73881 13.2667 8.32778 13.2001 7.92496L15.5834 7.09163C15.5834 7.09163 15.5834 7.09163 15.5834 7.14163C15.6233 7.30604 15.6512 7.47315 15.6667 7.64163C15.6667 7.71663 15.6667 7.78329 15.6667 7.84996C15.7223 8.32612 15.7223 8.80713 15.6667 9.28329V9.21663Z" fill="#A0AEC0"/>
</svg>
