<svg width="20" height="17" viewBox="0 0 20 17" fill="none" xmlns="http://www.w3.org/2000/svg">
<path d="M0.833984 8.91659V13.0833C0.833984 13.3043 0.921782 13.5162 1.07806 13.6725C1.23434 13.8288 1.4463 13.9166 1.66732 13.9166H2.50065C2.50065 14.5796 2.76404 15.2155 3.23288 15.6844C3.70173 16.1532 4.33761 16.4166 5.00065 16.4166C5.66369 16.4166 6.29958 16.1532 6.76842 15.6844C7.23726 15.2155 7.50065 14.5796 7.50065 13.9166H12.5007C12.5007 14.5796 12.764 15.2155 13.2329 15.6844C13.7017 16.1532 14.3376 16.4166 15.0007 16.4166C15.6637 16.4166 16.2996 16.1532 16.7684 15.6844C17.2373 15.2155 17.5007 14.5796 17.5007 13.9166H18.334C18.555 13.9166 18.767 13.8288 18.9232 13.6725C19.0795 13.5162 19.1673 13.3043 19.1673 13.0833V3.08325C19.1673 2.42021 18.9039 1.78433 18.4351 1.31549C17.9662 0.846644 17.3304 0.583252 16.6673 0.583252H9.16732C8.50428 0.583252 7.86839 0.846644 7.39955 1.31549C6.93071 1.78433 6.66732 2.42021 6.66732 3.08325V4.74992H5.00065C4.61254 4.74992 4.22976 4.84028 3.88262 5.01385C3.53548 5.18742 3.23352 5.43943 3.00065 5.74992L1.00065 8.41659C0.976277 8.45281 0.956671 8.49202 0.942318 8.53325L0.892318 8.62492C0.855539 8.71786 0.83578 8.81665 0.833984 8.91659ZM14.1673 13.9166C14.1673 13.7518 14.2162 13.5907 14.3078 13.4536C14.3993 13.3166 14.5295 13.2098 14.6818 13.1467C14.834 13.0836 15.0016 13.0671 15.1632 13.0993C15.3249 13.1314 15.4734 13.2108 15.5899 13.3273C15.7065 13.4439 15.7858 13.5924 15.818 13.754C15.8501 13.9157 15.8336 14.0832 15.7706 14.2355C15.7075 14.3878 15.6007 14.5179 15.4636 14.6095C15.3266 14.701 15.1655 14.7499 15.0007 14.7499C14.7796 14.7499 14.5677 14.6621 14.4114 14.5058C14.2551 14.3496 14.1673 14.1376 14.1673 13.9166ZM8.33399 3.08325C8.33399 2.86224 8.42178 2.65028 8.57806 2.494C8.73434 2.33772 8.94631 2.24992 9.16732 2.24992H16.6673C16.8883 2.24992 17.1003 2.33772 17.2566 2.494C17.4129 2.65028 17.5007 2.86224 17.5007 3.08325V12.2499H16.8507C16.6163 11.9921 16.3307 11.7861 16.0121 11.6452C15.6936 11.5042 15.349 11.4314 15.0007 11.4314C14.6523 11.4314 14.3078 11.5042 13.9892 11.6452C13.6706 11.7861 13.385 11.9921 13.1507 12.2499H8.33399V3.08325ZM6.66732 8.08325H3.33398L4.33398 6.74992C4.41161 6.64642 4.51226 6.56242 4.62797 6.50456C4.74369 6.44671 4.87128 6.41659 5.00065 6.41659H6.66732V8.08325ZM4.16732 13.9166C4.16732 13.7518 4.21619 13.5907 4.30776 13.4536C4.39933 13.3166 4.52948 13.2098 4.68175 13.1467C4.83402 13.0836 5.00158 13.0671 5.16323 13.0993C5.32488 13.1314 5.47336 13.2108 5.58991 13.3273C5.70645 13.4439 5.78582 13.5924 5.81797 13.754C5.85013 13.9157 5.83362 14.0832 5.77055 14.2355C5.70748 14.3878 5.60067 14.5179 5.46363 14.6095C5.32659 14.701 5.16547 14.7499 5.00065 14.7499C4.77964 14.7499 4.56768 14.6621 4.4114 14.5058C4.25512 14.3496 4.16732 14.1376 4.16732 13.9166ZM2.50065 9.74992H6.66732V12.0666C6.17551 11.627 5.52993 11.3997 4.87123 11.434C4.21253 11.4684 3.59409 11.7616 3.15065 12.2499H2.50065V9.74992Z" fill="#A0AEC0"/>
</svg>
