<svg width="18" height="15" viewBox="0 0 18 15" fill="none" xmlns="http://www.w3.org/2000/svg">
<path d="M14.8327 0.833252H3.16602C2.50297 0.833252 1.86709 1.09664 1.39825 1.56549C0.929408 2.03433 0.666016 2.67021 0.666016 3.33325V11.6666C0.666016 12.3296 0.929408 12.9655 1.39825 13.4344C1.86709 13.9032 2.50297 14.1666 3.16602 14.1666H14.8327C15.4957 14.1666 16.1316 13.9032 16.6004 13.4344C17.0693 12.9655 17.3327 12.3296 17.3327 11.6666V3.33325C17.3327 2.67021 17.0693 2.03433 16.6004 1.56549C16.1316 1.09664 15.4957 0.833252 14.8327 0.833252ZM14.491 2.49992L9.59101 7.39992C9.51355 7.47802 9.42138 7.54002 9.31983 7.58233C9.21828 7.62463 9.10936 7.64642 8.99935 7.64642C8.88934 7.64642 8.78042 7.62463 8.67887 7.58233C8.57732 7.54002 8.48515 7.47802 8.40768 7.39992L3.50768 2.49992H14.491ZM15.666 11.6666C15.666 11.8876 15.5782 12.0996 15.4219 12.2558C15.2657 12.4121 15.0537 12.4999 14.8327 12.4999H3.16602C2.945 12.4999 2.73304 12.4121 2.57676 12.2558C2.42048 12.0996 2.33268 11.8876 2.33268 11.6666V3.67492L7.23268 8.57492C7.70143 9.04309 8.33685 9.30605 8.99935 9.30605C9.66185 9.30605 10.2973 9.04309 10.766 8.57492L15.666 3.67492V11.6666Z" fill="#A0AEC0"/>
</svg>
