<svg width="16" height="18" viewBox="0 0 16 18" fill="none" xmlns="http://www.w3.org/2000/svg">
<path d="M15.0497 7.02493C14.9327 5.80736 14.5023 4.64083 13.8006 3.63895C13.0989 2.63706 12.1497 1.83396 11.0455 1.30784C9.94123 0.781728 8.71956 0.550532 7.49942 0.636768C6.27928 0.723004 5.10227 1.12373 4.08299 1.79993C3.20732 2.38547 2.4722 3.15768 1.93044 4.06109C1.38868 4.9645 1.05374 5.97669 0.949657 7.02493C0.847559 8.06631 0.978552 9.11736 1.33313 10.1018C1.68771 11.0863 2.25699 11.9795 2.99966 12.7166L7.41632 17.1416C7.49379 17.2197 7.58596 17.2817 7.68751 17.324C7.78906 17.3663 7.89798 17.3881 8.00799 17.3881C8.118 17.3881 8.22692 17.3663 8.32847 17.324C8.43002 17.2817 8.52219 17.2197 8.59966 17.1416L12.9997 12.7166C13.7423 11.9795 14.3116 11.0863 14.6662 10.1018C15.0208 9.11736 15.1518 8.06631 15.0497 7.02493ZM11.833 11.5416L7.99966 15.3749L4.16632 11.5416C3.6014 10.9766 3.16866 10.2935 2.89921 9.5414C2.62977 8.78926 2.53031 7.98676 2.60799 7.1916C2.68617 6.38418 2.94279 5.60423 3.3593 4.90813C3.7758 4.21204 4.34179 3.61719 5.01632 3.1666C5.90044 2.5793 6.93824 2.26601 7.99966 2.26601C9.06107 2.26601 10.0989 2.5793 10.983 3.1666C11.6555 3.61545 12.2202 4.20767 12.6366 4.90071C13.053 5.59376 13.3108 6.37043 13.3913 7.17493C13.4715 7.97279 13.3733 8.7785 13.1038 9.53372C12.8343 10.2889 12.4002 10.9748 11.833 11.5416ZM7.99966 3.99993C7.25798 3.99993 6.53295 4.21987 5.91627 4.63192C5.29958 5.04398 4.81894 5.62965 4.53511 6.31487C4.25128 7.00009 4.17702 7.75409 4.32171 8.48152C4.46641 9.20895 4.82356 9.87714 5.34801 10.4016C5.87245 10.926 6.54064 11.2832 7.26807 11.4279C7.9955 11.5726 8.7495 11.4983 9.43472 11.2145C10.1199 10.9307 10.7056 10.45 11.1177 9.83332C11.5297 9.21664 11.7497 8.49161 11.7497 7.74993C11.7475 6.75605 11.3517 5.8035 10.6489 5.10071C9.94609 4.39793 8.99354 4.00213 7.99966 3.99993ZM7.99966 9.83327C7.58761 9.83327 7.18482 9.71108 6.84222 9.48216C6.49962 9.25324 6.23259 8.92787 6.07491 8.54719C5.91722 8.16651 5.87597 7.74762 5.95635 7.34349C6.03674 6.93937 6.23516 6.56815 6.52652 6.27679C6.81788 5.98543 7.18909 5.78702 7.59322 5.70663C7.99734 5.62624 8.41623 5.6675 8.79691 5.82518C9.17759 5.98287 9.50296 6.24989 9.73188 6.59249C9.9608 6.9351 10.083 7.33789 10.083 7.74993C10.083 8.30247 9.86349 8.83237 9.47279 9.22307C9.08209 9.61377 8.55219 9.83327 7.99966 9.83327Z" fill="#A0AEC0"/>
</svg>
