<svg width="18" height="17" viewBox="0 0 18 17" fill="none" xmlns="http://www.w3.org/2000/svg">
<path d="M15.2008 9.3333C15.0175 9.3333 14.8258 9.27497 14.6425 9.2333C14.2712 9.15149 13.9064 9.04287 13.5508 8.9083C13.1642 8.76766 12.7393 8.77497 12.3577 8.92881C11.9762 9.08265 11.6651 9.37217 11.4841 9.74164L11.3008 10.1166C10.4892 9.66512 9.7433 9.10433 9.08415 8.44997C8.42979 7.79082 7.869 7.04497 7.41748 6.2333L7.76748 5.99997C8.13696 5.81907 8.42647 5.50791 8.58031 5.12638C8.73416 4.74485 8.74146 4.3199 8.60082 3.9333C8.4685 3.57699 8.35993 3.2123 8.27582 2.84164C8.23415 2.6583 8.20082 2.46664 8.17582 2.27497C8.07462 1.68799 7.76717 1.15642 7.30883 0.776004C6.8505 0.395585 6.2714 0.191312 5.67582 0.199971H3.17582C2.81668 0.196599 2.46102 0.270649 2.13307 0.41708C1.80512 0.563511 1.51257 0.778885 1.27534 1.04854C1.03811 1.31819 0.861762 1.6358 0.758306 1.97973C0.654851 2.32367 0.626716 2.68585 0.675816 3.04164C1.11976 6.53279 2.71417 9.77654 5.20719 12.2605C7.70021 14.7445 10.9497 16.3271 14.4425 16.7583H14.7592C15.3737 16.7592 15.967 16.5337 16.4258 16.125C16.6895 15.8892 16.9001 15.6001 17.0437 15.2769C17.1874 14.9537 17.2608 14.6037 17.2592 14.25V11.75C17.2489 11.1711 17.0382 10.6138 16.6628 10.173C16.2874 9.73229 15.7707 9.43549 15.2008 9.3333ZM15.6175 14.3333C15.6173 14.4516 15.592 14.5686 15.5431 14.6763C15.4943 14.7841 15.423 14.8802 15.3342 14.9583C15.2413 15.0391 15.1325 15.0995 15.0147 15.1354C14.897 15.1713 14.773 15.1819 14.6508 15.1666C11.5299 14.7665 8.63101 13.3387 6.41141 11.1085C4.19181 8.87838 2.77783 5.97275 2.39248 2.84997C2.37922 2.7279 2.39084 2.60441 2.42665 2.48696C2.46246 2.36951 2.52171 2.26054 2.60082 2.16664C2.67891 2.07775 2.77503 2.00651 2.8828 1.95765C2.99056 1.9088 3.1075 1.88345 3.22582 1.8833H5.72582C5.91961 1.87899 6.10884 1.94237 6.26094 2.06253C6.41304 2.18269 6.51849 2.35211 6.55915 2.54164C6.59248 2.76942 6.63415 2.99442 6.68415 3.21664C6.78042 3.65592 6.90853 4.08762 7.06748 4.5083L5.90082 5.04997C5.80106 5.09574 5.71134 5.16076 5.63678 5.2413C5.56223 5.32184 5.50432 5.41632 5.46638 5.5193C5.42843 5.62228 5.41121 5.73175 5.41569 5.84141C5.42017 5.95106 5.44627 6.05876 5.49248 6.1583C6.69182 8.72727 8.75685 10.7923 11.3258 11.9916C11.5287 12.075 11.7563 12.075 11.9592 11.9916C12.0631 11.9545 12.1586 11.897 12.2401 11.8226C12.3217 11.7482 12.3876 11.6584 12.4342 11.5583L12.9508 10.3916C13.3816 10.5457 13.8213 10.6737 14.2675 10.775C14.4897 10.825 14.7147 10.8666 14.9425 10.9C15.132 10.9406 15.3014 11.0461 15.4216 11.1982C15.5418 11.3503 15.6051 11.5395 15.6008 11.7333L15.6175 14.3333Z" fill="#A0AEC0"/>
</svg>
