<svg width="18" height="17" viewBox="0 0 18 17" fill="none" xmlns="http://www.w3.org/2000/svg">
<path d="M11.5811 9.02824L9.83269 8.01912V4.33341C9.83269 4.1124 9.74489 3.90044 9.58861 3.74416C9.43233 3.58788 9.22037 3.50008 8.99935 3.50008C8.77834 3.50008 8.56638 3.58788 8.4101 3.74416C8.25382 3.90044 8.16602 4.1124 8.16602 4.33341V8.50008C8.16598 8.64639 8.20447 8.79013 8.27761 8.91684C8.35075 9.04356 8.45597 9.14878 8.58269 9.22192L10.7478 10.4719C10.8426 10.5267 10.9473 10.5623 11.0558 10.5766C11.1644 10.5909 11.2747 10.5837 11.3804 10.5554C11.4862 10.5271 11.5853 10.4782 11.6722 10.4115C11.7591 10.3449 11.8319 10.2618 11.8867 10.167C11.9414 10.0721 11.9769 9.96746 11.9912 9.8589C12.0055 9.75035 11.9982 9.64004 11.9698 9.5343C11.9415 9.42855 11.8925 9.32943 11.8258 9.2426C11.7591 9.15577 11.676 9.08293 11.5811 9.02824ZM8.99935 0.166748C7.35117 0.166748 5.74001 0.65549 4.3696 1.57117C2.99919 2.48685 1.93109 3.78833 1.30036 5.31105C0.669626 6.83377 0.504599 8.50933 0.826142 10.1258C1.14769 11.7423 1.94136 13.2272 3.1068 14.3926C4.27223 15.5581 5.75709 16.3517 7.3736 16.6733C8.99011 16.9948 10.6657 16.8298 12.1884 16.1991C13.7111 15.5683 15.0126 14.5002 15.9283 13.1298C16.8439 11.7594 17.3327 10.1483 17.3327 8.50008C17.3302 6.2907 16.4515 4.17251 14.8892 2.61024C13.3269 1.04797 11.2087 0.169205 8.99935 0.166748ZM8.99935 15.1667C7.68081 15.1667 6.39188 14.7758 5.29555 14.0432C4.19922 13.3107 3.34474 12.2695 2.84016 11.0513C2.33557 9.83313 2.20355 8.49269 2.46078 7.19948C2.71802 5.90627 3.35296 4.71839 4.28531 3.78604C5.21766 2.85369 6.40554 2.21875 7.69875 1.96151C8.99196 1.70428 10.3324 1.8363 11.5506 2.34088C12.7687 2.84547 13.8099 3.69995 14.5425 4.79628C15.275 5.89261 15.666 7.18154 15.666 8.50008C15.664 10.2676 14.961 11.9621 13.7112 13.2119C12.4614 14.4617 10.7668 15.1647 8.99935 15.1667Z" fill="#A0AEC0"/>
</svg>
