<svg width="18" height="17" viewBox="0 0 18 17" fill="none" xmlns="http://www.w3.org/2000/svg">
<path d="M8.99914 0.166748C7.38288 0.169819 5.80238 0.642841 4.45017 1.5282C3.09796 2.41355 2.03239 3.67303 1.38326 5.15322C0.734134 6.63341 0.529459 8.27043 0.794167 9.86488C1.05888 11.4593 1.78154 12.9424 2.87415 14.1334C3.6545 14.9793 4.6016 15.6544 5.65576 16.1161C6.70992 16.5778 7.8483 16.8162 8.99914 16.8162C10.15 16.8162 11.2884 16.5778 12.3425 16.1161C13.3967 15.6544 14.3438 14.9793 15.1241 14.1334C16.2167 12.9424 16.9394 11.4593 17.2041 9.86488C17.4688 8.27043 17.2642 6.63341 16.615 5.15322C15.9659 3.67303 14.9003 2.41355 13.5481 1.5282C12.1959 0.642841 10.6154 0.169819 8.99914 0.166748ZM8.99914 15.1667C7.27287 15.1641 5.61491 14.492 4.37415 13.2917C4.75085 12.3747 5.39167 11.5903 6.21519 11.0383C7.03871 10.4863 8.00774 10.1916 8.99914 10.1916C9.99055 10.1916 10.9596 10.4863 11.7831 11.0383C12.6066 11.5903 13.2474 12.3747 13.6241 13.2917C12.3834 14.492 10.7254 15.1641 8.99914 15.1667ZM7.33248 6.83342C7.33248 6.50378 7.43023 6.18155 7.61336 5.90746C7.7965 5.63338 8.0568 5.41976 8.36134 5.29362C8.66588 5.16747 9.00099 5.13446 9.3243 5.19877C9.6476 5.26308 9.94457 5.42182 10.1777 5.6549C10.4107 5.88799 10.5695 6.18496 10.6338 6.50826C10.6981 6.83157 10.6651 7.16668 10.5389 7.47122C10.4128 7.77576 10.1992 8.03606 9.92509 8.2192C9.65101 8.40233 9.32878 8.50008 8.99914 8.50008C8.55712 8.50008 8.13319 8.32449 7.82063 8.01193C7.50807 7.69937 7.33248 7.27544 7.33248 6.83342ZM14.7575 11.8334C14.0129 10.5599 12.867 9.56927 11.4991 9.01675C11.9235 8.53563 12.1999 7.9423 12.2954 7.30795C12.3908 6.6736 12.3012 6.02518 12.0373 5.4405C11.7733 4.85582 11.3463 4.35971 10.8074 4.01172C10.2685 3.66373 9.64064 3.47862 8.99914 3.47862C8.35765 3.47862 7.72979 3.66373 7.19089 4.01172C6.65199 4.35971 6.22495 4.85582 5.96102 5.4405C5.69709 6.02518 5.60747 6.6736 5.70292 7.30795C5.79837 7.9423 6.07484 8.53563 6.49915 9.01675C5.13131 9.56927 3.98537 10.5599 3.24081 11.8334C2.64743 10.8227 2.33391 9.67214 2.33248 8.50008C2.33248 6.73197 3.03486 5.03628 4.2851 3.78604C5.53534 2.53579 7.23103 1.83341 8.99914 1.83341C10.7673 1.83341 12.4629 2.53579 13.7132 3.78604C14.9634 5.03628 15.6658 6.73197 15.6658 8.50008C15.6644 9.67214 15.3509 10.8227 14.7575 11.8334Z" fill="#A0AEC0"/>
</svg>
