<svg width="24" height="24" viewBox="0 0 24 24" fill="none" xmlns="http://www.w3.org/2000/svg">
<path d="M20.25 5.25V8.25C20.25 8.44891 20.171 8.63968 20.0303 8.78033C19.8897 8.92098 19.6989 9 19.5 9C19.3011 9 19.1103 8.92098 18.9697 8.78033C18.829 8.63968 18.75 8.44891 18.75 8.25V6H12.75V18H15C15.1989 18 15.3897 18.079 15.5303 18.2197C15.671 18.3603 15.75 18.5511 15.75 18.75C15.75 18.9489 15.671 19.1397 15.5303 19.2803C15.3897 19.421 15.1989 19.5 15 19.5H9C8.80109 19.5 8.61032 19.421 8.46967 19.2803C8.32902 19.1397 8.25 18.9489 8.25 18.75C8.25 18.5511 8.32902 18.3603 8.46967 18.2197C8.61032 18.079 8.80109 18 9 18H11.25V6H5.25V8.25C5.25 8.44891 5.17098 8.63968 5.03033 8.78033C4.88968 8.92098 4.69891 9 4.5 9C4.30109 9 4.11032 8.92098 3.96967 8.78033C3.82902 8.63968 3.75 8.44891 3.75 8.25V5.25C3.75 5.05109 3.82902 4.86032 3.96967 4.71967C4.11032 4.57902 4.30109 4.5 4.5 4.5H19.5C19.6989 4.5 19.8897 4.57902 20.0303 4.71967C20.171 4.86032 20.25 5.05109 20.25 5.25Z" fill="black"/>
</svg>
