<svg width="81" height="29" viewBox="0 0 81 29" fill="none" xmlns="http://www.w3.org/2000/svg">
<path d="M0 14.5C0 6.49187 6.49187 0 14.5 0H66.5C74.5081 0 81 6.49187 81 14.5C81 22.5081 74.5081 29 66.5 29H14.5C6.49187 29 0 22.5081 0 14.5Z" fill="#CBD5E0"/>
<path d="M15.364 9.57V16.598C15.364 17.984 14.3 18.992 12.886 18.992C11.458 18.992 10.408 17.984 10.408 16.598V9.57H9.064V16.598C9.064 18.74 10.576 20.168 12.886 20.168C15.196 20.168 16.708 18.726 16.708 16.598V9.57H15.364ZM22.0174 12.412C21.1074 12.412 20.3094 12.79 19.8754 13.434V12.58H18.6994V20H19.9034V15.506C19.9034 14.344 20.6454 13.574 21.7514 13.574C22.8714 13.574 23.5854 14.33 23.5854 15.506V20H24.7894V15.114C24.7894 13.56 23.6274 12.412 22.0174 12.412ZM27.2344 20H28.4384V13.728H30.2024V12.58H28.4384V11.908C28.4384 10.998 28.9984 10.536 29.8104 10.536C29.9364 10.536 30.2444 10.55 30.3984 10.578V9.514C30.2304 9.472 29.8944 9.444 29.6704 9.444C28.3264 9.444 27.2344 10.312 27.2344 11.908V12.58H25.7924V13.728H27.2344V20ZM36.3243 12.58V17.074C36.3243 18.236 35.5823 19.006 34.4903 19.006C33.3703 19.006 32.6423 18.25 32.6423 17.074V12.58H31.4383V17.298C31.4383 18.88 32.6143 20.168 34.2243 20.168C35.1203 20.168 35.9183 19.79 36.3523 19.146V20H37.5283V12.58H36.3243ZM39.3713 20H40.5753V9.57H39.3713V20ZM43.1621 20H44.3661V13.728H46.1301V12.58H44.3661V11.908C44.3661 10.998 44.9261 10.536 45.7381 10.536C45.8641 10.536 46.1721 10.55 46.3261 10.578V9.514C46.1581 9.472 45.8221 9.444 45.5981 9.444C44.2541 9.444 43.1621 10.312 43.1621 11.908V12.58H41.7201V13.728H43.1621V20ZM47.3901 11.208H48.5941V9.57H47.3901V11.208ZM47.3901 20H48.5941V12.58H47.3901V20ZM50.3361 20H51.5401V9.57H50.3361V20ZM53.3849 20H54.5889V9.57H53.3849V20ZM63.0838 15.968C63.0838 14.078 61.7398 12.412 59.6258 12.412C57.5538 12.412 56.0138 14.036 56.0138 16.276C56.0138 18.516 57.5958 20.168 59.7238 20.168C61.2498 20.168 62.4538 19.342 62.9158 18.32L61.8658 17.76C61.4738 18.516 60.7878 19.076 59.7378 19.076C58.4358 19.076 57.3298 18.124 57.2738 16.654H63.0278C63.0698 16.416 63.0838 16.178 63.0838 15.968ZM57.3018 15.618C57.4698 14.274 58.4638 13.476 59.6258 13.476C60.7178 13.476 61.7398 14.386 61.7538 15.618H57.3018ZM70.3411 9.57V13.672C69.8091 12.888 68.8151 12.412 67.6951 12.412C65.6091 12.412 63.9571 14.05 63.9571 16.29C63.9571 18.53 65.5951 20.168 67.7091 20.168C68.8291 20.168 69.8231 19.72 70.3691 18.922V20H71.5451V9.57H70.3411ZM67.7791 19.006C66.3091 19.006 65.2311 17.858 65.2311 16.29C65.2311 14.736 66.3091 13.574 67.7791 13.574C69.2491 13.574 70.3411 14.736 70.3411 16.29C70.3411 17.858 69.2491 19.006 67.7791 19.006Z" fill="#111827"/>
</svg>
