<svg width="40" height="40" viewBox="0 0 40 40" fill="none" xmlns="http://www.w3.org/2000/svg">
<path d="M27.6667 23.3333C27.3333 23.1666 25.1667 22.1666 24.8333 22C24.5 21.8333 24.1667 21.8333 23.8333 22.1666C23.5 22.5 22.8333 23.5 22.5 23.8333C22.3333 24.1666 22 24.1666 21.6667 24C20.5 23.5 19.3333 22.8333 18.3333 22C17.5 21.1666 16.6667 20.1666 16 19.1666C15.8333 18.8333 16 18.5 16.1667 18.3333C16.3333 18.1666 16.5 17.8333 16.8333 17.6666C17 17.5 17.1667 17.1666 17.1667 17C17.3333 16.8333 17.3333 16.5 17.1667 16.3333C17 16.1666 16.1667 14.1666 15.8333 13.3333C15.6667 12.1666 15.3333 12.1666 15 12.1666H14.1667C13.8333 12.1666 13.3333 12.5 13.1667 12.6666C12.1667 13.6666 11.6667 14.8333 11.6667 16.1666C11.8333 17.6666 12.3333 19.1666 13.3333 20.5C15.1667 23.1666 17.5 25.3333 20.3333 26.6666C21.1667 27 21.8333 27.3333 22.6667 27.5C23.5 27.8333 24.3333 27.8333 25.3333 27.6666C26.5 27.5 27.5 26.6666 28.1667 25.6666C28.5 25 28.5 24.3333 28.3333 23.6666L27.6667 23.3333ZM31.8333 8.16663C25.3333 1.66663 14.8333 1.66663 8.33334 8.16663C3.00001 13.5 2.00001 21.6666 5.66668 28.1666L3.33334 36.6666L12.1667 34.3333C14.6667 35.6666 17.3333 36.3333 20 36.3333C29.1667 36.3333 36.5 29 36.5 19.8333C36.6667 15.5 34.8333 11.3333 31.8333 8.16663ZM27.3333 31.5C25.1667 32.8333 22.6667 33.6666 20 33.6666C17.5 33.6666 15.1667 33 13 31.8333L12.5 31.5L7.33334 32.8333L8.66668 27.8333L8.33334 27.3333C4.33334 20.6666 6.33334 12.3333 12.8333 8.16663C19.3333 3.99996 27.6667 6.16663 31.6667 12.5C35.6667 19 33.8333 27.5 27.3333 31.5Z" fill="#0BA259"/>
</svg>
